<svg width="117" height="98" viewBox="0 0 117 98" fill="none" xmlns="http://www.w3.org/2000/svg">
<g id="Group 8">
<mask id="mask0_222_21809" style="mask-type:alpha" maskUnits="userSpaceOnUse" x="-20" y="-20" width="137" height="139">
<ellipse id="Ellipse 4" cx="48.5" cy="49.5" rx="68.5" ry="69.5" fill="url(#paint0_linear_222_21809)"/>
</mask>
<g mask="url(#mask0_222_21809)">
<ellipse id="Ellipse 5" cx="48.5" cy="49.5" rx="68.5" ry="69.5" fill="#74B65F"/>
<g id="Group 30">
<g id="Group">
<path id="Vector" d="M20.0005 24.5295C20.0165 24.0285 20.1248 23.5482 20.3255 23.0887C20.7668 22.0766 21.7379 21.2895 22.8271 21.0967C23.1905 21.0322 23.5794 21 23.9937 21C40.4519 21 56.9067 21 73.3583 21C73.8127 21 74.3813 21.0377 74.7735 21.1529C75.6838 21.4213 76.3713 21.9433 76.8359 22.7189C77.136 23.2196 77.3079 23.7936 77.3516 24.4411" stroke="white" stroke-width="0.10924"/>
<path id="Vector_2" d="M20.0005 63.2141C20.0234 63.5983 20.101 63.9692 20.2332 64.3267C20.2872 64.4742 20.3681 64.6059 20.4309 64.7506C20.4753 64.8526 20.5268 64.9474 20.5854 65.0352C20.8207 65.3862 21.0827 65.6709 21.3714 65.8894C21.8113 66.2222 22.2776 66.4435 22.7703 66.5531C23.1286 66.6323 23.5475 66.6432 23.9271 66.6437C28.4191 66.6481 32.8999 66.6479 37.3697 66.6432C37.3771 66.6431 37.3844 66.6447 37.3911 66.6479C37.3979 66.651 37.4038 66.6555 37.4086 66.6612C37.4133 66.6669 37.4167 66.6736 37.4186 66.6808C37.4205 66.6879 37.4207 66.6954 37.4194 66.7027C37.391 66.8584 37.3516 66.9966 37.3516 67.1555C37.3509 68.8233 37.3509 70.6006 37.3516 72.4875C37.3516 72.7719 37.3609 73.0552 37.3795 73.3374C37.4159 73.8978 37.6051 74.3783 37.947 74.7788C38.286 75.1761 38.7011 75.4754 39.1923 75.6768C39.4103 75.7658 39.6402 75.8095 39.8669 75.8729C40.0395 75.921 40.2145 75.9494 40.3918 75.9581C40.7089 75.9738 41.0261 75.9829 41.3433 75.9854C41.4168 75.9861 41.4897 75.9863 41.5618 75.9859C47.2874 75.9714 52.613 75.9677 57.5387 75.975C57.6872 75.9756 57.8364 76.0198 57.974 75.9903C58.21 75.9401 58.4448 75.9734 58.6819 75.9368C59.623 75.792 60.4477 75.4217 61.0475 74.6559C61.3107 74.3195 61.456 73.9086 61.4833 73.4232C61.5074 72.9944 61.4844 72.5935 61.485 72.168C61.4872 70.3918 61.4866 68.596 61.4833 66.7808C61.4833 66.7619 61.4782 66.7391 61.468 66.7126C61.4498 66.6667 61.4651 66.6439 61.5139 66.6443C65.7058 66.6483 69.7847 66.6479 73.7505 66.6432C74.5068 66.6421 75.199 66.4269 75.8271 65.9976C76.393 65.6112 76.8059 65.0909 77.0659 64.4365C77.2305 64.0221 77.3257 63.6123 77.3516 63.207" stroke="white" stroke-width="0.10924"/>
<path id="Vector_3" d="M22.3203 24.5793C22.3203 24.249 22.4515 23.9323 22.685 23.6987C22.9186 23.4652 23.2353 23.334 23.5656 23.334H73.7801C74.1103 23.334 74.4271 23.4652 74.6606 23.6987C74.8942 23.9323 75.0254 24.249 75.0254 24.5793V63.0799C75.0254 63.2435 74.9932 63.4054 74.9306 63.5565C74.868 63.7076 74.7763 63.8449 74.6606 63.9605C74.545 64.0762 74.4077 64.1679 74.2566 64.2305C74.1055 64.2931 73.9436 64.3253 73.7801 64.3253H23.5656C23.4021 64.3253 23.2401 64.2931 23.0891 64.2305C22.938 64.1679 22.8007 64.0762 22.685 63.9605C22.5694 63.8449 22.4777 63.7076 22.4151 63.5565C22.3525 63.4054 22.3203 63.2435 22.3203 63.0799V24.5793Z" stroke="white" stroke-width="0.10924"/>
<path id="Vector_4" d="M39.7859 66.9183C40.077 66.7457 40.3812 66.6556 40.7292 66.6491C41.102 66.6422 41.4958 66.6391 41.9106 66.6398C47.0897 66.6496 52.2718 66.6492 57.4571 66.6387C57.7357 66.6383 57.9938 66.6434 58.2316 66.654C58.5262 66.6675 58.8 66.7488 59.0531 66.8981C59.211 66.9915 59.2197 67.1947 59.2191 67.3548C59.2188 68.2844 59.2206 69.1399 59.2246 69.9214C59.225 69.9702 59.2008 69.9946 59.152 69.9946L39.7454 69.994C39.6992 69.994 39.6761 69.9711 39.6761 69.9252L39.6826 67.0986C39.6828 67.0621 39.6924 67.0263 39.7105 66.9947C39.7286 66.9631 39.7546 66.9368 39.7859 66.9183Z" stroke="white" stroke-width="0.10924"/>
<path id="Vector_5" d="M58.8057 73.5276C58.576 73.616 58.2994 73.6606 57.976 73.6614C52.4208 73.6697 46.7813 73.6723 41.0575 73.669C40.7869 73.669 40.4962 73.6364 40.1852 73.5712C40.0181 73.5363 39.8875 73.4478 39.7406 73.3719C39.7238 73.3631 39.7125 73.3497 39.7067 73.3315C39.6871 73.2707 39.677 73.2073 39.6767 73.1414C39.6749 72.8752 39.6739 72.6056 39.6739 72.3325C39.6739 72.3241 39.6773 72.316 39.6832 72.3101C39.6892 72.3041 39.6972 72.3008 39.7056 72.3008L59.0925 72.3013C59.1686 72.3013 59.2083 72.3394 59.2116 72.4155C59.2239 72.6966 59.2238 72.9741 59.211 73.2479C59.2077 73.3244 59.1715 73.3773 59.1023 73.4068C59.0022 73.4498 58.9033 73.49 58.8057 73.5276Z" stroke="white" stroke-width="0.10924"/>
<path id="Vector_6" d="M23.3174 26.8647C23.3174 26.5582 23.4391 26.2642 23.6559 26.0475C23.8726 25.8308 24.1666 25.709 24.4731 25.709H72.8774C73.184 25.709 73.4779 25.8308 73.6947 26.0475C73.9114 26.2642 74.0332 26.5582 74.0332 26.8647V56.1105C74.0332 56.4171 73.9114 56.711 73.6947 56.9278C73.4779 57.1445 73.184 57.2663 72.8774 57.2663H24.4731C24.1666 57.2663 23.8726 57.1445 23.6559 56.9278C23.4391 56.711 23.3174 56.4171 23.3174 56.1105V26.8647Z" stroke="white" stroke-width="0.10924"/>
<path id="Vector_7" d="M65.3276 44.6986C64.3867 43.7656 63.4612 42.8568 62.5513 41.9719C62.1981 41.6282 61.7749 41.2225 61.2819 40.755C61.137 40.6181 60.9992 40.5168 60.8684 40.4513C60.5877 40.3098 60.1961 40.2995 59.9126 40.4142C59.5843 40.5474 59.309 40.9314 59.2178 41.2651C59.122 41.6151 59.0226 41.9523 58.9196 42.2767C58.7361 42.8546 58.5662 43.4456 58.3838 44.0366C58.2352 44.5189 58.0724 45.1027 57.8971 45.6244C57.813 45.8745 57.7305 46.1542 57.6497 46.4633C57.5382 46.8897 57.4015 47.303 57.2395 47.7032C57.2245 47.7393 57.2156 47.738 57.2127 47.6994C57.1821 47.3167 57.1342 46.9318 57.0691 46.5447C56.9669 45.9412 56.9172 45.2912 56.8386 44.6909C56.7708 44.1747 56.7244 43.6744 56.6561 43.1697C56.4883 41.9317 56.3339 40.6993 56.193 39.4725C56.117 38.8116 55.9947 38.0944 55.9237 37.4368C55.8079 36.363 55.6828 35.3525 55.5484 34.4054C55.4956 34.0336 55.4499 33.6717 55.4113 33.3196C55.2762 32.0924 55.1331 30.9536 54.982 29.9031C54.9192 29.4667 54.6718 29.0417 54.2397 28.891C53.7411 28.7173 53.3096 28.8522 52.9665 29.2329C52.8438 29.3694 52.7464 29.5466 52.6743 29.7643C52.5975 29.9974 52.5061 30.2428 52.4001 30.5006C52.2254 30.925 52.0822 31.3767 51.908 31.8131C51.7485 32.2135 51.6174 32.6308 51.4547 33.0344C51.3695 33.246 51.2872 33.4634 51.2078 33.6866C50.9241 34.4837 50.6352 35.2609 50.341 36.0183C50.274 36.1909 50.2097 36.3688 50.1481 36.552C49.9974 36.9988 49.8051 37.4406 49.6473 37.8803C49.4033 38.5598 49.1557 39.2227 48.9044 39.869C48.6647 40.4857 48.4664 41.1209 48.2031 41.7212C48.1765 41.782 48.1383 41.7908 48.0884 41.7474C47.7356 41.4408 47.3847 41.1297 47.0359 40.814C46.832 40.629 46.6375 40.497 46.4526 40.418C46.1998 40.3098 45.9142 40.3075 45.5956 40.4109C45.2487 40.5234 45.021 40.8828 44.9057 41.2198C44.7058 41.8053 44.5802 42.4083 44.3934 42.9944C44.2637 43.4008 44.1461 43.8186 44.0405 44.2479C43.9155 44.7575 43.7057 45.2535 43.6019 45.768C43.6 45.7776 43.5959 45.7866 43.59 45.7943C43.584 45.8021 43.5763 45.8083 43.5676 45.8126C43.5588 45.8169 43.5491 45.8191 43.5394 45.819C43.5296 45.819 43.52 45.8167 43.5113 45.8123C43.4814 45.797 43.455 45.7758 43.4321 45.7489C42.7901 44.9944 42.0968 44.1698 41.3521 43.2752C41.1194 42.9955 40.8403 42.7847 40.4591 42.6945C40.2149 42.6366 39.991 42.6951 39.7725 42.8027C39.5701 42.9025 39.4373 42.9758 39.3743 43.0228C38.791 43.4554 38.212 43.8732 37.6374 44.2763C37.236 44.5582 36.8372 44.8706 36.4232 45.1382C36.3384 45.1929 36.2524 45.2229 36.1654 45.2284C35.6127 45.2628 35.055 45.2409 34.5115 45.2398C31.5595 45.2322 28.6247 45.232 25.7073 45.2393C25.653 45.2397 25.6259 45.2127 25.6259 45.1585L25.6254 28.0935C25.6254 28.0429 25.6507 28.0176 25.7013 28.0176H71.7122C71.7264 28.0176 71.7331 28.025 71.7324 28.04C71.7276 28.151 71.7253 28.261 71.7253 28.3699C71.7271 33.7969 71.7267 39.2946 71.7242 44.863C71.7242 44.9605 71.716 45.0634 71.6996 45.1716C71.6965 45.1919 71.6864 45.2105 71.6712 45.2243C71.656 45.238 71.6365 45.246 71.616 45.2469C71.3156 45.2606 71.0289 45.2251 70.7285 45.2458C70.5116 45.2611 70.2926 45.2366 70.0741 45.236C68.9997 45.2344 67.9172 45.2235 66.8351 45.2475C66.5766 45.2533 66.3077 45.2417 66.0284 45.2125C65.9658 45.206 65.9115 45.1869 65.8656 45.1552C65.6981 45.0401 65.5188 44.8879 65.3276 44.6986Z" stroke="white" stroke-width="0.10924"/>
<path id="Vector_8" d="M49.0947 44.9052C49.4891 44.7424 49.6568 44.4715 49.8212 44.058C50.067 43.4392 50.2505 42.8973 50.4673 42.332C50.7235 41.6651 50.9578 40.9993 51.202 40.3296C51.2846 40.1021 51.3702 39.8796 51.4587 39.6622C51.646 39.2012 51.8001 38.7304 51.983 38.2666C52.1442 37.8597 52.2813 37.4282 52.4517 37.0158C52.5223 36.8436 52.5857 36.669 52.6418 36.492C52.8029 35.9841 53.0323 35.4958 53.1962 34.9616C53.2129 34.9062 53.2304 34.906 53.2486 34.961C53.3094 35.1475 53.3462 35.3421 53.3589 35.5449C53.3748 35.7863 53.437 36.0376 53.4654 36.2823C53.5328 36.8569 53.6045 37.4379 53.6806 38.0252C53.7145 38.2825 53.7194 38.5496 53.7555 38.7926C53.8512 39.4415 53.9319 40.0241 53.9974 40.5405C54.1192 41.5001 54.2192 42.5363 54.3606 43.5336C54.4972 44.4997 54.6139 45.439 54.7108 46.3515C54.769 46.8981 54.8368 47.4324 54.914 47.9546C55.013 48.6213 55.0953 49.2797 55.1608 49.9297C55.1911 50.2293 55.2242 50.5143 55.2602 50.7845C55.2981 51.0681 55.3371 51.3542 55.3771 51.6425C55.4055 51.8463 55.4547 52.0484 55.4673 52.2466C55.4778 52.4083 55.4937 52.5563 55.5148 52.6907C55.5461 52.8877 55.5705 53.084 55.588 53.2795C55.6355 53.8093 55.8174 54.2015 56.3117 54.4402C56.5225 54.5414 56.7375 54.5675 56.9567 54.5183C57.2506 54.4522 57.5516 54.2965 57.7045 54.0251C57.8399 53.7844 57.9525 53.5084 58.042 53.197C58.1586 52.791 58.2798 52.3776 58.4058 51.9566C58.6822 51.0339 58.9546 50.131 59.2229 49.248C59.255 49.1428 59.2879 49.0353 59.3218 48.9257C59.5701 48.1145 59.8183 47.303 60.0663 46.4913C60.2602 45.8555 60.43 45.2143 60.6398 44.584C60.7266 44.3224 60.7872 44.0575 60.8621 43.7936C60.8777 43.739 60.9138 43.7115 60.9702 43.7112C61.0001 43.7112 61.0327 43.7285 61.068 43.7631C61.7238 44.4036 62.374 45.0342 63.0185 45.6551C63.3815 46.0047 63.7815 46.4005 64.2185 46.8425C64.4927 47.1195 64.8641 47.4625 65.2639 47.5122C65.4971 47.5411 65.7375 47.5586 65.9778 47.5581C67.8032 47.554 69.6923 47.5533 71.6452 47.5559C71.6994 47.5562 71.7266 47.5834 71.7266 47.6373C71.7266 49.9754 71.7262 52.3129 71.7255 54.6499C71.7251 54.7377 71.7149 54.8284 71.6949 54.9219C71.6909 54.9409 71.6792 54.9503 71.6599 54.9503L25.6807 54.952C25.6523 54.952 25.6389 54.9376 25.6403 54.9088C25.6436 54.8236 25.6267 54.7319 25.6267 54.6456C25.6234 52.3792 25.6237 50.093 25.6277 47.7869C25.6277 47.7243 25.6374 47.6556 25.6567 47.581C25.6614 47.5632 25.6727 47.5542 25.6906 47.5542C29.1968 47.5553 32.7029 47.5584 36.2088 47.5635C36.543 47.5642 36.789 47.542 36.9467 47.4969C37.183 47.4292 37.4009 47.3216 37.6005 47.1741C38.3491 46.6206 39.0816 46.0915 39.7978 45.5868C39.875 45.5322 39.9586 45.4869 40.0485 45.4508C40.0657 45.4443 40.0817 45.4464 40.0966 45.4574C40.1946 45.5298 40.2632 45.5895 40.3025 45.6365C41.2333 46.7439 42.1711 47.8495 43.116 48.9536C43.4415 49.3343 43.92 49.6019 44.4149 49.4168C44.9753 49.207 45.1626 48.822 45.3194 48.2326C45.4093 47.8947 45.502 47.5599 45.5974 47.2282C45.699 46.8769 45.7826 46.5072 45.8973 46.151C45.9898 45.863 46.0693 45.5972 46.136 45.3536C46.2987 44.7599 46.4375 44.1814 46.651 43.6189C46.653 43.6137 46.6562 43.6092 46.6604 43.6056C46.6645 43.6021 46.6695 43.5996 46.6748 43.5984C46.6802 43.5972 46.6858 43.5974 46.691 43.5988C46.6963 43.6003 46.7011 43.6031 46.7051 43.6068C47.0678 43.959 47.4625 44.3102 47.8893 44.6605C48.2448 44.9527 48.6468 45.0898 49.0947 44.9052Z" stroke="white" stroke-width="0.10924"/>
</g>
<path id="Vector_9" d="M20.0005 24.5296V63.2137C20.0234 63.5978 20.101 63.9687 20.2332 64.3263C20.2872 64.4738 20.3681 64.6054 20.4309 64.7501C20.4753 64.8521 20.5268 64.947 20.5854 65.0347C20.8207 65.3857 21.0827 65.6705 21.3714 65.889C21.8113 66.2218 22.2776 66.443 22.7703 66.5526C23.1286 66.6318 23.5475 66.6427 23.9271 66.6433C28.4191 66.6477 32.8999 66.6475 37.3697 66.6427C37.3771 66.6427 37.3844 66.6443 37.3911 66.6474C37.3979 66.6505 37.4038 66.6551 37.4086 66.6608C37.4133 66.6665 37.4167 66.6731 37.4186 66.6803C37.4205 66.6875 37.4207 66.695 37.4194 66.7023C37.391 66.8579 37.3516 66.9961 37.3516 67.1551C37.3509 68.8228 37.3509 70.6001 37.3516 72.4871C37.3516 72.7715 37.3609 73.0548 37.3795 73.337C37.4159 73.8974 37.6051 74.3778 37.947 74.7784C38.286 75.1757 38.7011 75.475 39.1923 75.6763C39.4103 75.7654 39.6402 75.8091 39.8669 75.8724C40.0395 75.9205 40.2145 75.9489 40.3918 75.9576C40.709 75.9733 41.0261 75.9824 41.3433 75.985C41.4168 75.9857 41.4897 75.9859 41.5617 75.9855C47.2874 75.9709 52.613 75.9673 57.5387 75.9746C57.6872 75.9751 57.8364 76.0194 57.974 75.9899C58.21 75.9396 58.4448 75.9729 58.6819 75.9363C59.623 75.7916 60.4477 75.4213 61.0475 74.6555C61.3107 74.319 61.456 73.9081 61.4833 73.4227C61.5074 72.994 61.4844 72.593 61.485 72.1676C61.4872 70.3913 61.4866 68.5956 61.4833 66.7804C61.4833 66.7614 61.4782 66.7387 61.468 66.7121C61.4498 66.6662 61.4651 66.6435 61.5139 66.6438C65.7058 66.6478 69.7847 66.6475 73.7505 66.6427C74.5068 66.6416 75.199 66.4264 75.8271 65.9971C76.393 65.6108 76.8059 65.0904 77.0659 64.4361C77.2305 64.0217 77.3257 63.6119 77.3516 63.2066V24.4411C77.3079 23.7936 77.136 23.2196 76.8359 22.7189C76.3713 21.9433 75.6838 21.4213 74.7735 21.1529C74.3813 21.0377 73.8127 21 73.3583 21C56.9067 21 40.4519 21 23.9937 21C23.5794 21 23.1905 21.0322 22.8271 21.0967C21.7379 21.2895 20.7668 22.0766 20.3255 23.0887C20.1248 23.5482 20.0165 24.0285 20.0005 24.5296ZM22.3213 24.5798C22.3213 24.2495 22.4525 23.9328 22.686 23.6992C22.9196 23.4657 23.2363 23.3345 23.5666 23.3345H73.781C74.1113 23.3345 74.4281 23.4657 74.6616 23.6992C74.8952 23.9328 75.0264 24.2495 75.0264 24.5798V63.0804C75.0264 63.2439 74.9942 63.4059 74.9316 63.557C74.869 63.7081 74.7773 63.8454 74.6616 63.961C74.546 64.0766 74.4087 64.1684 74.2576 64.231C74.1065 64.2935 73.9446 64.3257 73.781 64.3257H23.5666C23.4031 64.3257 23.2411 64.2935 23.09 64.231C22.939 64.1684 22.8017 64.0766 22.686 63.961C22.5704 63.8454 22.4787 63.7081 22.4161 63.557C22.3535 63.4059 22.3213 63.2439 22.3213 63.0804V24.5798ZM39.7855 66.9186C40.0766 66.746 40.3809 66.6558 40.7288 66.6493C41.1017 66.6424 41.4955 66.6393 41.9102 66.64C47.0893 66.6498 52.2715 66.6495 57.4567 66.6389C57.7353 66.6385 57.9935 66.6436 58.2313 66.6542C58.5258 66.6677 58.7997 66.7491 59.0527 66.8984C59.2106 66.9918 59.2193 67.1949 59.2188 67.355C59.2184 68.2846 59.2202 69.1401 59.2242 69.9216C59.2246 69.9704 59.2004 69.9948 59.1516 69.9948L39.7451 69.9942C39.6988 69.9942 39.6757 69.9713 39.6757 69.9254L39.6823 67.0988C39.6825 67.0623 39.6921 67.0265 39.7102 66.9949C39.7282 66.9633 39.7542 66.937 39.7855 66.9186ZM58.8048 73.5265C58.575 73.615 58.2984 73.6596 57.9751 73.6603C52.4199 73.6687 46.7803 73.6712 41.0565 73.668C40.786 73.668 40.4952 73.6354 40.1842 73.5702C40.0171 73.5352 39.8866 73.4468 39.7396 73.3708C39.7229 73.3621 39.7116 73.3486 39.7058 73.3304C39.6861 73.2696 39.6761 73.2062 39.6757 73.1403C39.6739 72.8742 39.673 72.6045 39.673 72.3314C39.673 72.323 39.6763 72.315 39.6823 72.309C39.6882 72.3031 39.6963 72.2997 39.7047 72.2997L59.0915 72.3003C59.1676 72.3003 59.2073 72.3383 59.2106 72.4144C59.223 72.6956 59.2228 72.973 59.21 73.2468C59.2068 73.3233 59.1705 73.3763 59.1014 73.4058C59.0012 73.4488 58.9024 73.489 58.8048 73.5265Z" fill="white"/>
<path id="Vector_10" d="M23.3174 56.1105C23.3174 56.4171 23.4391 56.711 23.6559 56.9278C23.8726 57.1445 24.1666 57.2663 24.4731 57.2663H72.8774C73.184 57.2663 73.4779 57.1445 73.6947 56.9278C73.9114 56.711 74.0332 56.4171 74.0332 56.1105V26.8647C74.0332 26.5582 73.9114 26.2642 73.6947 26.0475C73.4779 25.8308 73.184 25.709 72.8774 25.709H24.4731C24.1666 25.709 23.8726 25.8308 23.6559 26.0475C23.4391 26.2642 23.3174 26.5582 23.3174 26.8647V56.1105ZM65.3273 44.6982C64.3864 43.7653 63.4609 42.8564 62.551 41.9716C62.1978 41.6278 61.7746 41.2222 61.2816 40.7546C61.1367 40.6177 60.9988 40.5165 60.8681 40.4509C60.5874 40.3095 60.1957 40.2991 59.9123 40.4138C59.584 40.5471 59.3087 40.9311 59.2175 41.2648C59.1217 41.6147 59.0223 41.9519 58.9193 42.2763C58.7358 42.8542 58.5659 43.4452 58.3835 44.0362C58.2349 44.5185 58.0721 45.1024 57.8968 45.624C57.8127 45.8742 57.7302 46.1538 57.6494 46.463C57.5379 46.8894 57.4012 47.3027 57.2392 47.7029C57.2242 47.7389 57.2153 47.7376 57.2124 47.699C57.1818 47.3163 57.1339 46.9314 57.0687 46.5444C56.9666 45.9408 56.9169 45.2908 56.8383 44.6906C56.7705 44.1744 56.7241 43.6741 56.6558 43.1694C56.488 41.9313 56.3336 40.6989 56.1926 39.4722C56.1167 38.8113 55.9944 38.0941 55.9234 37.4365C55.8076 36.3626 55.6825 35.3522 55.5481 34.405C55.4953 34.0333 55.4496 33.6713 55.411 33.3192C55.2759 32.0921 55.1328 30.9532 54.9817 29.9027C54.9189 29.4663 54.6715 29.0414 54.2394 28.8906C53.7407 28.7169 53.3092 28.8518 52.9662 29.2325C52.8435 29.3691 52.7461 29.5462 52.674 29.764C52.5972 29.997 52.5058 30.2425 52.3998 30.5003C52.225 30.9247 52.0819 31.3764 51.9077 31.8128C51.7482 32.2131 51.6171 32.6304 51.4543 33.0341C51.3691 33.2456 51.2868 33.463 51.2075 33.6862C50.9238 34.4833 50.6349 35.2606 50.3406 36.018C50.2736 36.1906 50.2094 36.3685 50.1478 36.5516C49.9971 36.9984 49.8048 37.4403 49.647 37.88C49.403 38.5595 49.1554 39.2224 48.9041 39.8687C48.6644 40.4854 48.4661 41.1206 48.2028 41.7209C48.1762 41.7817 48.138 41.7904 48.0881 41.7471C47.7353 41.4405 47.3844 41.1293 47.0356 40.8136C46.8317 40.6286 46.6372 40.4966 46.4522 40.4176C46.1995 40.3095 45.9139 40.3071 45.5953 40.4105C45.2484 40.523 45.0206 40.8824 44.9054 41.2195C44.7055 41.805 44.5799 42.408 44.3931 42.9941C44.2634 43.4004 44.1458 43.8183 44.0402 44.2476C43.9151 44.7572 43.7054 45.2531 43.6016 45.7677C43.5997 45.7772 43.5956 45.7863 43.5897 45.794C43.5837 45.8017 43.576 45.808 43.5673 45.8123C43.5585 45.8166 43.5488 45.8188 43.5391 45.8187C43.5293 45.8186 43.5197 45.8163 43.511 45.8119C43.4811 45.7966 43.4547 45.7755 43.4318 45.7485C42.7898 44.9941 42.0965 44.1695 41.3518 43.2748C41.1191 42.9951 40.84 42.7843 40.4588 42.6942C40.2146 42.6363 39.9907 42.6947 39.7722 42.8023C39.5697 42.9021 39.437 42.9755 39.374 43.0225C38.7907 43.4551 38.2117 43.8729 37.6371 44.276C37.2356 44.5578 36.8369 44.8703 36.4229 45.1379C36.3381 45.1925 36.2521 45.2226 36.1651 45.228C35.6123 45.2624 35.0547 45.2406 34.5112 45.2395C31.5592 45.2318 28.6244 45.2317 25.707 45.2389C25.6527 45.2393 25.6256 45.2124 25.6256 45.1581L25.6251 28.0932C25.6251 28.0425 25.6504 28.0172 25.701 28.0172H71.7118C71.7261 28.0172 71.7328 28.0247 71.7321 28.0396C71.7273 28.1507 71.725 28.2607 71.725 28.3695C71.7268 33.7966 71.7264 39.2943 71.7239 44.8626C71.7239 44.9602 71.7157 45.0631 71.6993 45.1712C71.6962 45.1916 71.6861 45.2102 71.6709 45.2239C71.6556 45.2377 71.6362 45.2457 71.6157 45.2466C71.3153 45.2602 71.0286 45.2247 70.7281 45.2455C70.5113 45.2608 70.2923 45.2362 70.0738 45.2357C68.9994 45.234 67.9168 45.2231 66.8348 45.2471C66.5763 45.253 66.3074 45.2413 66.0281 45.2122C65.9655 45.2056 65.9112 45.1865 65.8653 45.1548C65.6978 45.0398 65.5185 44.8876 65.3273 44.6982ZM49.0948 44.9047C49.4891 44.7419 49.6568 44.471 49.8212 44.0575C50.067 43.4387 50.2505 42.8968 50.4674 42.3315C50.7235 41.6646 50.9579 40.9988 51.202 40.3291C51.2847 40.1016 51.3702 39.8791 51.4587 39.6617C51.6461 39.2007 51.8001 38.7299 51.9831 38.2661C52.1442 37.8592 52.2813 37.4277 52.4517 37.0153C52.5224 36.8431 52.5857 36.6685 52.6418 36.4915C52.8029 35.9836 53.0323 35.4953 53.1962 34.9611C53.2129 34.9057 53.2304 34.9055 53.2486 34.9605C53.3094 35.147 53.3462 35.3416 53.359 35.5444C53.3748 35.7858 53.4371 36.0371 53.4655 36.2818C53.5328 36.8564 53.6046 37.4374 53.6807 38.0247C53.7145 38.282 53.7194 38.5491 53.7555 38.7921C53.8513 39.441 53.9319 40.0236 53.9975 40.54C54.1193 41.4997 54.2192 42.5358 54.3607 43.5332C54.4972 44.4992 54.6139 45.4385 54.7108 46.351C54.7691 46.8976 54.8368 47.4319 54.914 47.9541C55.013 48.6208 55.0953 49.2792 55.1609 49.9292C55.1911 50.2288 55.2242 50.5138 55.2603 50.784C55.2981 51.0676 55.3371 51.3537 55.3772 51.6421C55.4056 51.8458 55.4547 52.0479 55.4673 52.2462C55.4778 52.4078 55.4937 52.5559 55.5148 52.6902C55.5461 52.8872 55.5705 53.0835 55.588 53.279C55.6355 53.8088 55.8174 54.201 56.3117 54.4397C56.5225 54.5409 56.7376 54.567 56.9568 54.5178C57.2506 54.4517 57.5516 54.296 57.7045 54.0246C57.84 53.7839 57.9525 53.5079 58.0421 53.1965C58.1586 52.7905 58.2799 52.3771 58.4058 51.9561C58.6822 51.0334 58.9546 50.1305 59.223 49.2475C59.255 49.1423 59.288 49.0349 59.3218 48.9253C59.5702 48.114 59.8183 47.3025 60.0663 46.4908C60.2602 45.8551 60.4301 45.2138 60.6398 44.5835C60.7267 44.3219 60.7873 44.057 60.8621 43.7931C60.8778 43.7385 60.9138 43.711 60.9703 43.7107C61.0001 43.7107 61.0327 43.728 61.068 43.7626C61.7238 44.4031 62.374 45.0338 63.0185 45.6546C63.3816 46.0042 63.7816 46.4 64.2185 46.842C64.4927 47.119 64.8641 47.462 65.2639 47.5117C65.4972 47.5406 65.7375 47.5581 65.9778 47.5576C67.8032 47.5536 69.6924 47.5528 71.6452 47.5554C71.6995 47.5557 71.7266 47.5829 71.7266 47.6368C71.7266 49.9749 71.7262 52.3124 71.7255 54.6494C71.7251 54.7372 71.7149 54.8279 71.6949 54.9214C71.6909 54.9404 71.6793 54.9498 71.66 54.9498L25.6808 54.9515C25.6524 54.9515 25.6389 54.9371 25.6404 54.9083C25.6436 54.8231 25.6267 54.7314 25.6267 54.6451C25.6234 52.3787 25.6238 50.0925 25.6278 47.7864C25.6278 47.7238 25.6374 47.6552 25.6567 47.5805C25.6615 47.5627 25.6728 47.5537 25.6906 47.5537C29.1968 47.5548 32.7029 47.5579 36.2088 47.563C36.5431 47.5638 36.789 47.5415 36.9467 47.4964C37.183 47.4287 37.401 47.3211 37.6005 47.1736C38.3492 46.6201 39.0816 46.091 39.7979 45.5863C39.8751 45.5317 39.9586 45.4864 40.0486 45.4503C40.0657 45.4438 40.0817 45.446 40.0966 45.4569C40.1946 45.5293 40.2632 45.5891 40.3026 45.636C41.2333 46.7434 42.1711 47.8491 43.116 48.9531C43.4416 49.3338 43.9201 49.6014 44.4149 49.4163C44.9753 49.2065 45.1627 48.8215 45.3194 48.2321C45.4094 47.8942 45.502 47.5594 45.5974 47.2277C45.699 46.8765 45.7826 46.5067 45.8973 46.1506C45.9898 45.8625 46.0694 45.5967 46.136 45.3531C46.2988 44.7594 46.4375 44.181 46.6511 43.6184C46.653 43.6133 46.6563 43.6087 46.6604 43.6052C46.6646 43.6016 46.6695 43.5991 46.6749 43.5979C46.6802 43.5967 46.6858 43.5969 46.6911 43.5983C46.6963 43.5998 46.7012 43.6026 46.7051 43.6063C47.0678 43.9585 47.4625 44.3097 47.8893 44.66C48.2449 44.9522 48.6469 45.0893 49.0948 44.9047Z" fill="white"/>
</g>
</g>
</g>
<defs>
<linearGradient id="paint0_linear_222_21809" x1="48.5" y1="-20" x2="48.5" y2="119" gradientUnits="userSpaceOnUse">
<stop stop-color="#017E82"/>
<stop offset="0.447917" stop-color="#42AB84"/>
<stop offset="1" stop-color="#74B65F"/>
</linearGradient>
</defs>
</svg>
