<svg width="119" height="98" viewBox="0 0 119 98" fill="none" xmlns="http://www.w3.org/2000/svg">
<g id="Group 8">
<mask id="mask0_222_21739" style="mask-type:alpha" maskUnits="userSpaceOnUse" x="-20" y="-18" width="139" height="139">
<circle id="Ellipse 4" cx="49.5" cy="51.5" r="69.5" fill="url(#paint0_linear_222_21739)"/>
</mask>
<g mask="url(#mask0_222_21739)">
<circle id="Ellipse 5" cx="49.5" cy="51.5" r="69.5" fill="#74B65F"/>
<g id="Group 9">
<path id="Vector" d="M25.9797 20.1879C21.1282 20.6334 17.9392 23.1434 16.4125 27.7178C16.3954 27.7674 16.3897 27.8202 16.3957 27.8724C16.4017 27.9247 16.4193 27.9751 16.4473 28.0202C16.4753 28.0653 16.5129 28.1039 16.5576 28.1333C16.6023 28.1627 16.6529 28.1822 16.7059 28.1905C18.7324 28.4893 20.5686 29.3286 22.2148 30.7086C22.9645 31.3388 23.0107 32.0152 22.3533 32.7377L22.0681 33.0474C21.6335 33.5255 21.169 33.5554 20.6746 33.137C17.4801 30.4369 14.4432 30.3636 11.5638 32.917C9.04566 35.1417 9.1842 39.2082 11.5149 41.5307C11.7677 41.7837 11.9259 42.1145 11.9631 42.4679C12.0609 43.473 11.648 43.9809 10.7244 43.9918C10.2463 43.9918 9.77909 43.9483 9.32273 43.8614C9.05652 43.8071 8.87996 43.9103 8.79303 44.1711C7.82056 47.1265 7.58967 50.2151 8.10035 53.4367C9.57536 62.7105 17.0482 66.6873 25.9064 65.8561C26.2215 65.829 26.3817 65.6578 26.3872 65.3427L26.4279 63.5092C26.4306 63.3623 26.463 63.2173 26.5232 63.0829C26.5834 62.9485 26.6702 62.8274 26.7783 62.7268C27.4303 62.1238 28.1148 62.1347 28.8319 62.7594C28.9583 62.8653 29.0623 62.9955 29.1379 63.1424C29.2134 63.2893 29.259 63.45 29.272 63.6151C29.6306 68.4177 32.1106 71.6312 36.7122 73.2556C41.5963 74.9832 46.1191 73.989 50.2807 70.273C50.4987 70.0799 50.7636 69.948 51.0486 69.8907C51.3335 69.8334 51.6281 69.8529 51.9024 69.947C55.124 71.0499 58.5005 71.5008 62.0318 71.2998C62.9011 71.2509 63.4715 71.6285 63.7432 72.4325C63.7595 72.4706 63.7676 72.5113 63.7676 72.5548C63.8274 73.4512 63.4444 73.9836 62.6186 74.152C62.1676 74.2444 61.7004 74.277 61.2169 74.2498C60.8366 74.2281 60.6845 74.4047 60.7606 74.7795C60.8203 75.062 60.967 75.2956 61.2006 75.4804C62.7001 76.6946 64.4521 77.6399 66.3102 78.1288C73.0088 79.8891 80.9298 84.1185 82.0381 91.4528C82.0679 91.6474 82.0477 91.8466 81.9793 92.0319C81.9109 92.2171 81.7966 92.3824 81.647 92.5122C81.3319 92.7838 80.995 92.9224 80.6365 92.9278C79.8976 92.9332 79.4141 92.5828 79.1859 91.8766C77.1975 85.7076 71.4116 82.6516 65.3323 80.9648C61.4152 79.8836 58.7124 77.7648 57.2238 74.6084C57.1677 74.4891 57.0849 74.3844 56.9817 74.3024C56.8785 74.2204 56.7578 74.1634 56.6289 74.1357L52.1957 73.223C51.8154 73.1415 51.4705 73.2176 51.1608 73.4512C43.4679 79.3023 32.165 77.5828 27.6014 68.9365C27.4384 68.6323 27.1858 68.5019 26.8435 68.5454C15.6791 69.947 7.00836 64.7804 5.23998 53.2656C4.58804 49.0117 5.26442 44.8746 7.26913 40.8543C7.38986 40.6127 7.41881 40.3348 7.35062 40.072C6.30209 35.867 7.36149 32.5123 10.5288 30.0077C11.3193 29.3721 12.3461 29.1358 13.1692 28.5653C13.4028 28.4078 13.5467 28.1878 13.6011 27.9052C15.1739 20.1798 20.7805 17.2216 28.4815 17.2868C28.7803 17.2868 29.0465 17.1945 29.2802 17.0098C35.9788 11.5824 42.653 11.6394 50.9815 13.7338C51.3672 13.8316 51.7339 13.7799 52.0816 13.5789C56.7539 10.8734 60.9616 11.6449 64.7048 15.8933C64.8732 16.078 65.0824 16.1867 65.3323 16.2193C74.6876 17.4498 83.3176 24.2626 85.7297 33.2837C85.833 33.6749 86.0802 33.9248 86.4713 34.0335C92.4936 35.7122 94.702 41.2292 92.787 46.8685C92.6837 47.1781 92.7136 47.4742 92.8766 47.7567C95.6093 52.4887 95.7044 57.1854 93.1618 61.8467C91.9965 63.99 89.9592 65.2205 89.0465 67.5838C87.6176 71.2455 85.3223 73.989 82.1604 75.8145C81.5356 76.1785 81.4677 76.6267 81.9566 77.1591C85.5369 81.087 87.2292 85.5501 87.0336 90.5482C87.0064 91.3469 86.599 91.8168 85.8112 91.9581C85.6971 91.9798 85.5776 91.9825 85.4527 91.9662C84.5345 91.8575 84.051 91.3387 84.0021 90.4097C83.7685 85.7972 82.1387 81.8992 79.1126 78.7156C77.6457 77.1672 76.9612 77.8436 75.1602 77.8844C74.8244 77.8911 74.497 77.7797 74.2349 77.5697C73.9728 77.3598 73.7927 77.0645 73.726 76.7353C73.4489 75.3581 74.549 74.861 75.641 74.6899C80.4436 73.9239 83.8065 71.4139 85.7297 67.16C86.4713 65.522 86.8951 64.1529 88.2886 62.8898C91.9938 59.5269 92.8956 55.3925 90.9941 50.4867C90.9513 50.3778 90.8814 50.2814 90.7913 50.2068C90.7011 50.1322 90.5937 50.0819 90.4792 50.0606C90.3647 50.0394 90.2471 50.0479 90.1375 50.0854C90.0279 50.1229 89.93 50.1881 89.8532 50.2748C89.0872 51.1305 87.3433 52.0921 86.4958 50.7882C86.0231 50.0467 86.1616 49.1176 86.9603 48.6694C90.2037 46.8359 92.0291 43.0302 89.6006 39.6564C87.6774 36.9943 84.9882 36.2908 81.5329 37.5458C81.3254 37.6215 81.1003 37.6365 80.8839 37.5889C80.6675 37.5413 80.4687 37.433 80.3105 37.2768C79.52 36.5108 79.6097 35.4351 80.5631 34.9136C81.1227 34.6039 81.7013 34.3404 82.2989 34.1231C82.444 34.0728 82.5639 33.9684 82.6338 33.8318C82.7037 33.6951 82.718 33.5367 82.6738 33.3897C80.5794 26.0798 73.8319 21.2881 66.6443 19.2589C66.5776 19.2392 66.507 19.2364 66.4389 19.251C66.3709 19.2657 66.3076 19.2971 66.2549 19.3425C66.2022 19.388 66.1617 19.4459 66.1372 19.511C66.1127 19.5761 66.1049 19.6464 66.1146 19.7153C66.3102 21.1007 66.2097 22.3882 65.8131 23.578C65.7508 23.7707 65.6416 23.9452 65.4951 24.0859C65.3487 24.2266 65.1696 24.3293 64.9737 24.3848C64.4304 24.5423 63.9605 24.45 63.5639 24.1077C63.2053 23.7926 63.0586 23.4015 63.1238 22.9342C63.6617 19.0226 61.7222 14.9317 57.2808 14.9562C54.2222 14.9779 52.174 16.5398 51.1363 19.6419C50.8593 20.4677 50.297 20.7937 49.4494 20.6199C49.042 20.5384 48.6889 20.2423 48.39 19.7316C48.3261 19.6221 48.2872 19.4996 48.2759 19.3729C48.2646 19.2462 48.2813 19.1182 48.3249 18.9982L49.1968 16.6349C49.2181 16.5778 49.2267 16.5168 49.2222 16.456C49.2177 16.3952 49.2002 16.3362 49.1708 16.2828C49.1414 16.2294 49.1009 16.183 49.0519 16.1467C49.003 16.1105 48.9468 16.0852 48.8872 16.0726C41.4632 14.4102 33.3711 15.005 29.1498 22.0378C28.5902 22.9668 27.8269 23.1869 26.8598 22.6979C26.5447 22.5349 26.398 22.2769 26.4198 21.9237L26.5013 20.7013C26.5284 20.3265 26.3546 20.1553 25.9797 20.1879Z" fill="white"/>
<path id="Vector_2" d="M37.1689 49.1902C39.2062 49.1902 39.2361 48.9512 37.2586 48.4731C34.7541 47.8646 32.2794 47.5196 29.8346 47.4381C28.8948 47.411 28.4547 46.9274 28.5145 45.9876L28.5389 45.6208C28.5495 45.4506 28.5953 45.2845 28.6735 45.1329C28.7516 44.9814 28.8604 44.8477 28.993 44.7405C29.1256 44.6332 29.279 44.5546 29.4435 44.5098C29.608 44.4649 29.7801 44.4548 29.9487 44.48L36.0851 45.3601C36.5251 45.4198 36.5713 45.3085 36.2236 45.026C33.768 43.0158 30.9918 41.3642 27.8951 40.0712C27.6126 39.9517 27.3491 39.9843 27.1047 40.169C26.3386 40.7476 25.5726 41.3181 24.5621 41.3181C22.5139 41.3289 21.2807 40.3429 20.8624 38.3599C19.9252 33.8778 26.3957 32.2235 27.9359 36.7464C28.0391 37.0397 28.2347 37.2407 28.5226 37.3494C33.4502 39.1857 37.6905 41.9157 41.2435 45.5394C42.1128 46.4303 42.2622 46.3244 41.6917 45.2215L38.9944 40.0305C38.6304 39.3351 38.7689 38.7619 39.41 38.311C39.6273 38.1589 39.8881 38.0502 40.1923 37.985C40.4449 37.9283 40.7096 37.9565 40.9464 38.0653C41.1832 38.1741 41.379 38.3576 41.5043 38.5881L43.9898 43.1516C44.2017 43.5319 44.3348 43.5075 44.3891 43.0783C45.0818 37.6265 45.3181 31.3434 41.3576 27.2444C41.1349 27.0162 40.8714 26.9592 40.5672 27.0732C35.5228 28.9639 33.4121 21.8822 37.8209 20.3501C40.2412 19.5108 42.7022 21.271 42.7511 23.8462C42.7566 24.2591 42.9033 24.6149 43.1912 24.9137C48.1133 29.9988 47.7629 36.3063 47.2577 43.119C46.9561 47.2181 48.26 49.9644 50.4766 53.1589C50.7048 53.4794 50.8379 53.4441 50.8759 53.0529C51.1584 50.2605 51.6338 47.4055 52.302 44.4881C52.8073 42.277 52.829 39.0118 52.3672 34.6928C52.3491 34.5286 52.297 34.3704 52.2141 34.2286C52.1312 34.0867 52.0196 33.9644 51.8864 33.8697C49.7296 32.3159 49.2732 30.5448 50.5173 28.5564C53.4511 23.8788 60.3697 29.8603 55.5128 33.5437C55.3821 33.6419 55.2805 33.7741 55.2188 33.9262C55.1571 34.0783 55.1376 34.2446 55.1624 34.4075C56.0914 40.2016 55.2765 45.0586 54.0052 50.5674C53.4185 53.11 53.8341 55.2858 55.252 57.0949C55.7899 57.7795 55.9882 57.6898 55.8469 56.826C54.9831 51.6431 58.1532 47.7885 59.8074 42.9724C60.1225 42.0651 60.75 41.7011 61.6899 41.8804C61.8257 41.9075 61.948 41.9564 62.0566 42.027C62.6216 42.3856 62.8145 42.8882 62.6352 43.5347C61.201 48.6768 55.7084 54.3324 60.5246 59.6538C61.3341 60.5448 61.6709 60.3927 61.5351 59.1974C61.3286 57.2905 61.6627 55.5167 62.5374 53.876C65.2919 48.7176 69.2524 43.8117 69.285 37.6917C69.2873 37.3361 69.2014 36.9854 69.035 36.6711C68.8686 36.3568 68.6269 36.0887 68.3315 35.8907C64.1591 33.0874 67.7203 27.6029 71.7868 29.5017C74.3619 30.7078 74.3049 33.9104 72.3246 35.6625C72.1073 35.8581 72.0095 36.1026 72.0313 36.3959C72.6669 43.8036 69.1872 48.0656 65.8297 53.8597C63.8956 57.1954 64.1863 60.2161 66.7017 62.9216C66.7605 62.9852 66.8362 63.0304 66.92 63.0519C67.0038 63.0734 67.0922 63.0703 67.175 63.043C67.2579 63.0157 67.3316 62.9652 67.3878 62.8976C67.4439 62.8299 67.4801 62.7478 67.4921 62.6609C67.7366 60.7702 67.9838 58.9367 68.2337 57.1601C68.6575 54.1558 70.396 52.3738 73.4492 51.8143C73.7478 51.7615 74.0182 51.5958 74.2071 51.3497C75.511 49.6629 76.2933 48.1797 78.9173 48.685C83.375 49.5325 82.4215 56.1741 77.8172 56.0111C76.7415 55.9703 76.0651 55.3999 75.1931 54.8784C74.9443 54.7302 74.6534 54.6646 74.3619 54.6909C72.5691 54.8539 71.363 56.1415 71.2652 57.9262C71.1674 59.7462 70.9148 61.5172 70.5074 63.2394C70.1868 64.5868 70.5345 65.7576 71.5504 66.7518C72.6587 67.8329 73.6964 69.0145 74.6634 70.2967C74.8226 70.5032 74.9137 70.7509 74.9242 71.0056C74.9514 71.7173 74.7558 72.1981 74.3375 72.4481C73.5334 72.9316 72.8136 72.8283 72.1779 72.1384C67.3944 66.8821 62.5782 64.0381 56.2136 61.5281C54.1519 60.7132 52.2531 59.3686 50.5255 57.9506C47.5103 55.4651 42.3274 54.0553 39.5485 57.7795C39.3747 58.0077 39.3448 58.2521 39.4589 58.5129C41.4554 63.2557 35.1153 65.8472 33.0862 61.9111C32.2604 60.303 32.475 58.8823 33.73 57.6491C34.5041 56.8912 35.5228 56.769 36.5088 56.4349C36.8177 56.3335 37.0917 56.1471 37.2993 55.897C38.3316 54.642 39.6517 53.7049 41.2598 53.0855C42.1671 52.7324 42.14 52.4879 41.1783 52.3521C35.061 51.4991 29.0931 52.8275 23.2745 56.3371C23.0301 56.4892 22.9105 56.7065 22.916 56.989C22.9649 62.6364 15.0438 62.1637 15.6876 56.9564C16.0217 54.2346 18.385 53.4278 20.8379 54.039C21.0952 54.1017 21.3678 54.0669 21.6039 53.9412C26.5261 51.3008 31.5867 49.1902 37.1689 49.1902ZM39.6789 23.7647C39.6789 23.5961 39.6119 23.4344 39.4927 23.3152C39.3735 23.196 39.2118 23.129 39.0433 23.129C38.8747 23.129 38.713 23.196 38.5938 23.3152C38.4746 23.4344 38.4076 23.5961 38.4076 23.7647C38.4076 23.9332 38.4746 24.0949 38.5938 24.2141C38.713 24.3333 38.8747 24.4003 39.0433 24.4003C39.2118 24.4003 39.3735 24.3333 39.4927 24.2141C39.6119 24.0949 39.6789 23.9332 39.6789 23.7647ZM53.2297 31.3517C53.3112 31.3639 53.3947 31.3574 53.4754 31.3326C53.5561 31.3078 53.6324 31.2652 53.7 31.2072C53.7675 31.1492 53.8251 31.077 53.8693 30.9946C53.9135 30.9123 53.9435 30.8214 53.9575 30.7272C53.986 30.537 53.9478 30.3448 53.8516 30.1929C53.7553 30.0409 53.6088 29.9418 53.4442 29.9172C53.3627 29.905 53.2792 29.9115 53.1986 29.9363C53.1179 29.9611 53.0416 30.0037 52.974 30.0617C52.9064 30.1197 52.8489 30.1919 52.8047 30.2743C52.7605 30.3566 52.7305 30.4475 52.7164 30.5417C52.688 30.7319 52.7261 30.9241 52.8224 31.076C52.9186 31.228 53.0652 31.3271 53.2297 31.3517ZM70.5807 33.1444C70.798 32.4925 70.6269 32.1013 70.0673 31.9709C69.974 31.9493 69.8767 31.9522 69.7848 31.9794C69.693 32.0066 69.6097 32.0571 69.5432 32.1261C69.4767 32.195 69.4293 32.2801 69.4054 32.3728C69.3816 32.4656 69.3822 32.563 69.4072 32.6555C69.4778 32.9325 69.6082 33.1607 69.7984 33.34C70.1624 33.6823 70.4231 33.6171 70.5807 33.1444ZM25.0592 37.7487C25.0592 37.5455 24.9785 37.3507 24.8348 37.2071C24.6912 37.0634 24.4963 36.9827 24.2932 36.9827C24.09 36.9827 23.8952 37.0634 23.7515 37.2071C23.6079 37.3507 23.5272 37.5455 23.5272 37.7487C23.5272 37.9519 23.6079 38.1467 23.7515 38.2904C23.8952 38.434 24.09 38.5147 24.2932 38.5147C24.4963 38.5147 24.6912 38.434 24.8348 38.2904C24.9785 38.1467 25.0592 37.9519 25.0592 37.7487ZM77.5238 52.3847C77.5836 52.6509 77.7303 52.8275 77.9639 52.9144C78.3496 53.0556 78.5914 52.928 78.6892 52.5314C78.7761 52.2108 78.6919 51.9609 78.4365 51.7817C78.1703 51.5969 77.9204 51.616 77.6868 51.8387C77.6148 51.9079 77.562 51.9946 77.5334 52.0902C77.5049 52.1859 77.5016 52.2874 77.5238 52.3847ZM19.4437 58.333C19.6475 58.2841 19.8208 58.1445 19.9253 57.945C20.0299 57.7454 20.0571 57.5023 20.0012 57.269C19.9452 57.0357 19.8105 56.8315 19.6267 56.7011C19.443 56.5708 19.2252 56.525 19.0214 56.574C18.8175 56.6229 18.6443 56.7625 18.5397 56.962C18.4352 57.1616 18.4079 57.4047 18.4639 57.638C18.5199 57.8713 18.6546 58.0756 18.8383 58.2059C19.0221 58.3363 19.2398 58.382 19.4437 58.333ZM37.0304 60.265C37.0304 60.0748 36.9548 59.8924 36.8204 59.7579C36.6859 59.6234 36.5035 59.5479 36.3133 59.5479C36.1231 59.5479 35.9407 59.6234 35.8062 59.7579C35.6717 59.8924 35.5961 60.0748 35.5961 60.265C35.5961 60.4552 35.6717 60.6376 35.8062 60.7721C35.9407 60.9066 36.1231 60.9821 36.3133 60.9821C36.5035 60.9821 36.6859 60.9066 36.8204 60.7721C36.9548 60.6376 37.0304 60.4552 37.0304 60.265Z" fill="white"/>
</g>
</g>
</g>
<defs>
<linearGradient id="paint0_linear_222_21739" x1="49.5" y1="-18" x2="49.5" y2="121" gradientUnits="userSpaceOnUse">
<stop stop-color="#017E82"/>
<stop offset="0.447917" stop-color="#42AB84"/>
<stop offset="1" stop-color="#74B65F"/>
</linearGradient>
</defs>
</svg>
