<svg width="117" height="98" viewBox="0 0 117 98" fill="none" xmlns="http://www.w3.org/2000/svg">
<g id="Group 8">
<mask id="mask0_222_21795" style="mask-type:alpha" maskUnits="userSpaceOnUse" x="-20" y="-20" width="137" height="139">
<ellipse id="Ellipse 4" cx="48.5" cy="49.5" rx="68.5" ry="69.5" fill="url(#paint0_linear_222_21795)"/>
</mask>
<g mask="url(#mask0_222_21795)">
<ellipse id="Ellipse 5" cx="48.5" cy="49.5" rx="68.5" ry="69.5" fill="#74B65F"/>
<g id="Group 29">
<g id="Group 28">
<path id="Vector" d="M41.0514 21.9879L41.1619 22.6418C39.735 22.8831 38.281 22.4316 37.1185 21.4399C35.9594 20.4511 35.1718 18.9992 34.9033 17.4116M41.0514 21.9879L34.9033 17.4116M41.0514 21.9879L41.1619 22.6418C41.8659 22.5227 42.5312 22.2396 43.1193 21.8134C43.7069 21.3877 44.2034 20.8296 44.5852 20.177C44.967 19.5246 45.2279 18.7887 45.3581 18.0129C45.4882 17.237 45.4858 16.4325 45.3524 15.6442C45.0839 14.0566 44.2963 12.6047 43.1372 11.6159C41.9747 10.6242 40.5208 10.1727 39.0938 10.414L39.0938 10.414C38.3898 10.5331 37.7246 10.8162 37.1365 11.2423C36.5489 11.6681 36.0524 12.2262 35.6705 12.8788C35.2888 13.5312 35.0279 14.2671 34.8977 15.0429C34.7675 15.8188 34.77 16.6233 34.9033 17.4116M41.0514 21.9879L35.5572 17.301L34.9033 17.4116" stroke="white" stroke-width="1.32635"/>
<path id="Vector_2" d="M51.3709 10.3405L51.3327 11.0025L51.3709 10.3405ZM51.3709 10.3405C51.8118 10.3659 52.2271 10.5227 52.5909 10.7815C52.9523 11.0385 53.254 11.389 53.4901 11.7962C53.7265 12.2036 53.8982 12.6691 54.0031 13.1629C54.108 13.6573 54.1455 14.178 54.1156 14.6969C54.0857 15.2158 53.9886 15.7288 53.8275 16.2078C53.6666 16.6863 53.4425 17.129 53.1609 17.5066C52.8795 17.8839 52.5396 18.1974 52.151 18.4112C51.7599 18.6265 51.3294 18.7346 50.8884 18.7091L48.1437 14.3527C48.1736 13.8338 48.2707 13.3208 48.4317 12.8418C48.5926 12.3633 48.8167 11.9206 49.0984 11.543C49.3797 11.1657 49.7196 10.8522 50.1082 10.6384C50.4994 10.4231 50.9299 10.315 51.3709 10.3405ZM49.6683 18.2681C50.0322 18.5269 50.4474 18.6837 50.8884 18.7091L48.1437 14.3527C48.1137 14.8716 48.1512 15.3923 48.2562 15.8867C48.361 16.3805 48.5328 16.846 48.7691 17.2535C49.0053 17.6606 49.3069 18.0111 49.6683 18.2681Z" stroke="white" stroke-width="1.32635"/>
<path id="Vector_3" d="M57.6507 18.9001C57.9769 19.1346 58.3506 19.2807 58.749 19.3135L59.3467 12.043C58.9483 12.0103 58.5557 12.0934 58.1956 12.2715C57.8377 12.4485 57.522 12.7139 57.2585 13.0363C56.9948 13.3589 56.7828 13.7389 56.6278 14.1508C56.4726 14.5631 56.3749 15.0061 56.338 15.4555C56.301 15.9049 56.325 16.3578 56.4108 16.79C56.4965 17.2216 56.6436 17.6312 56.851 17.9925C57.0583 18.3536 57.3265 18.667 57.6507 18.9001Z" stroke="white" stroke-width="1.32635"/>
<path id="Vector_4" d="M65.9812 16.2823C66.4127 16.314 66.8081 16.5952 67.0805 17.0642C67.3528 17.5331 67.4797 18.1513 67.4334 18.7828C67.4104 19.0955 67.3456 19.402 67.2426 19.6849C67.1396 19.9678 67.0005 20.2214 66.8332 20.4314C66.6658 20.6414 66.4736 20.8036 66.2674 20.9088C66.0612 21.0139 65.8451 21.06 65.6314 21.0443C65.1999 21.0126 64.8045 20.7313 64.5322 20.2624C64.2599 19.7935 64.1329 19.1753 64.1793 18.5438C64.2023 18.2311 64.2671 17.9246 64.3701 17.6417C64.4731 17.3588 64.6122 17.1052 64.7795 16.8952C64.9468 16.6852 65.1391 16.523 65.3453 16.4178C65.5514 16.3126 65.7675 16.2666 65.9812 16.2823ZM65.9812 16.2823L66.0298 15.6209M65.9812 16.2823L66.0298 15.6209M66.0298 15.6209C66.7355 15.6727 67.303 16.1269 67.6539 16.7311C68.004 17.3339 68.1492 18.0896 68.0948 18.8314L68.0948 18.8314C68.0675 19.2024 67.9905 19.5692 67.8658 19.9118C67.7412 20.2539 67.5689 20.5723 67.3518 20.8447C67.1349 21.1169 66.8716 21.3451 66.5687 21.4996C66.2635 21.6552 65.9271 21.731 65.5829 21.7057C64.8771 21.6538 64.3096 21.1997 63.9587 20.5955C63.6087 19.9927 63.4634 19.2369 63.5179 18.4952L63.5179 18.4952C63.5452 18.1242 63.6222 17.7574 63.7469 17.4148C63.8715 17.0727 64.0438 16.7543 64.2608 16.4819C64.4777 16.2097 64.741 15.9815 65.044 15.827C65.3491 15.6714 65.6856 15.5956 66.0298 15.6209Z" stroke="white" stroke-width="1.32635"/>
<path id="Vector_5" d="M71.4685 25.4663L71.4685 25.4663C72.0635 25.4746 72.5644 25.1415 72.8915 24.6849C73.2172 24.2303 73.3841 23.6464 73.3922 23.0657L73.3922 23.0657C73.4003 22.485 73.2497 21.8966 72.9369 21.4332C72.6226 20.9676 72.1312 20.6207 71.5362 20.6124L71.5362 20.6124C70.9413 20.6041 70.4403 20.9372 70.1132 21.3938C69.7876 21.8484 69.6206 22.4322 69.6125 23.013L69.6125 23.013C69.6044 23.5937 69.755 24.182 70.0679 24.6455C70.3821 25.111 70.8736 25.458 71.4685 25.4663ZM71.527 21.2755L71.527 21.2755L71.527 21.2755Z" stroke="white" stroke-width="1.32635"/>
</g>
<path id="Vector_6" d="M71.9939 46.3167C71.3175 50.3002 70.6101 54.3014 69.8717 58.3202C69.4208 60.774 69.1621 63.0663 69.0958 65.1974C69.0295 67.514 68.9322 69.7932 68.804 72.0347C68.4658 77.9436 66.4962 87.4336 59.6323 89.2574C54.4131 90.65 48.9353 88.6539 46.4417 83.8061C44.1405 79.3363 45.626 73.109 47.3304 68.6193C47.4814 68.2314 47.7481 67.902 48.093 67.6776C50.2594 66.2805 52.3948 64.8591 54.4993 63.4134C55.8831 62.4584 56.973 61.3134 57.7688 59.9782C60.0457 56.1362 62.3071 52.2301 64.5531 48.2599C64.6055 48.1676 64.6341 48.0638 64.6362 47.9577C64.6383 47.8516 64.6139 47.7467 64.5651 47.6525C64.5163 47.5582 64.4448 47.4777 64.357 47.4182C64.2692 47.3586 64.1679 47.3219 64.0623 47.3115C62.4265 47.1391 60.9542 47.5878 59.6456 48.6578C56.847 50.9391 53.9909 53.1342 51.0773 55.2431C50.9688 55.3214 50.8435 55.3732 50.7113 55.3943C50.5791 55.4154 50.4436 55.4053 50.3156 55.3647C50.1876 55.3242 50.0705 55.2544 49.9737 55.1607C49.8768 55.0671 49.8028 54.9523 49.7576 54.8253C48.2787 50.6075 44.9695 46.7412 42.204 43.286C42.166 43.2385 42.1178 43.1999 42.063 43.1733C42.0082 43.1466 41.9482 43.1324 41.8873 43.1318C41.8264 43.1311 41.7661 43.1441 41.7107 43.1696C41.6554 43.1951 41.6064 43.2326 41.5674 43.2794C39.3126 45.9056 37.5353 48.0742 37.0379 51.768C36.4145 56.3661 35.8376 60.8956 35.307 65.3565C35.2584 65.7633 35.1589 66.159 35.0086 66.5436L26.3144 88.76C26.2706 88.8693 26.2027 88.9688 26.1154 89.0518C25.5672 89.5956 25.0919 89.7658 24.6896 89.5624C24.0441 89.2397 23.8518 88.7423 24.1126 88.0703L32.9527 65.5422C32.9704 65.162 33.0014 64.7906 33.0456 64.4281C33.6469 59.326 34.3233 54.4406 35.0749 49.7719C35.5922 46.5886 38.1852 43.8431 40.1946 41.3363C40.2783 41.233 40.3308 41.1077 40.346 40.9751C40.3613 40.8425 40.3387 40.7079 40.2808 40.5869C39.4386 38.8693 38.5168 36.893 38.5433 34.9963C38.6406 28.8907 41.5563 24.9382 47.2906 23.1387C54.1611 20.9834 61.4295 22.8005 67.4445 26.899C71.5098 29.6644 73.4396 33.5705 72.9157 38.4846C72.6416 41.0622 72.3343 43.6729 71.9939 46.3167ZM63.5517 44.9904C66.3635 44.9771 67.7562 47.2319 66.3834 49.5796C64.3762 52.9927 62.2961 56.6468 60.1429 60.5419C58.0539 64.3286 54.0484 66.6497 50.4805 68.8249C49.8792 69.1875 49.4503 69.6937 49.1939 70.3436C46.8396 76.2857 46.0372 85.6364 54.5457 87.1551C59.1482 87.973 62.4044 86.1471 64.3143 81.6773C67.67 73.812 66.0319 65.4626 67.6766 57.2061C68.8792 51.1889 69.8629 45.1098 70.6278 38.9688C71.1097 35.1091 70.1061 32.1049 67.6169 29.9562C63.9474 26.7906 59.6345 24.9979 54.6784 24.5778C50.9911 24.2661 45.4271 25.2874 42.9402 28.4972C40.2211 31.9921 40.1217 36.6675 42.7412 40.1359C45.6459 43.9824 48.7363 47.7028 51.0773 51.8808C51.2144 52.1284 51.3957 52.1682 51.6211 52.0002C53.8627 50.3069 56.0909 48.5892 58.3059 46.8473C59.8777 45.6138 61.5025 44.997 63.5517 44.9904Z" fill="#FCFEFE"/>
</g>
</g>
</g>
<defs>
<linearGradient id="paint0_linear_222_21795" x1="48.5" y1="-20" x2="48.5" y2="119" gradientUnits="userSpaceOnUse">
<stop stop-color="#017E82"/>
<stop offset="0.447917" stop-color="#42AB84"/>
<stop offset="1" stop-color="#74B65F"/>
</linearGradient>
</defs>
</svg>
