<svg width="70" height="60" viewBox="0 0 70 60" fill="none" xmlns="http://www.w3.org/2000/svg">
<g id="Group 3" opacity="0.5">
<path id="Vector" d="M69.4223 10.3205C69.4223 15.7099 67.2814 20.8785 63.4706 24.6893C59.6597 28.5001 54.4911 30.6411 49.1018 30.6411C43.7124 30.6411 38.5438 28.5001 34.733 24.6893C30.9222 20.8785 28.7812 15.7099 28.7812 10.3205C28.7812 4.93119 30.9222 -0.237418 34.733 -4.04826C38.5438 -7.85909 43.7124 -10 49.1018 -10C54.4911 -10 59.6597 -7.85909 63.4706 -4.04826C67.2814 -0.237418 69.4223 4.93119 69.4223 10.3205ZM67.3251 10.3205C67.3251 5.4874 65.4052 0.852223 61.9876 -2.56531C58.5701 -5.98285 53.9349 -7.9028 49.1018 -7.9028C44.2686 -7.9028 39.6335 -5.98285 36.2159 -2.56531C32.7984 0.852223 30.8784 5.4874 30.8784 10.3205C30.8784 15.1537 32.7984 19.7888 36.2159 23.2064C39.6335 26.6239 44.2686 28.5439 49.1018 28.5439C53.9349 28.5439 58.5701 26.6239 61.9876 23.2064C65.4052 19.7888 67.3251 15.1537 67.3251 10.3205Z" fill="#232323"/>
<path id="Vector_2" d="M50.1553 3.11847C50.1506 4.26257 50.1525 5.39499 50.1609 6.51574C50.1735 8.10019 48.0399 8.12541 48.0511 6.51574C48.0576 5.42674 48.059 4.29059 48.0553 3.10727C48.0553 3.05216 48.0291 3.0148 47.9768 2.99519C46.8561 2.58705 46.094 1.86044 45.6905 0.81534C44.8471 -1.36871 46.2831 -3.87218 48.6689 -4.12435C50.5027 -4.31908 52.1754 -3.21374 52.6433 -1.41354C53.1448 0.511338 52.0787 2.31014 50.2449 2.99099C50.1861 3.0134 50.1562 3.0559 50.1553 3.11847ZM50.6652 -0.495933C50.6652 -0.910211 50.5006 -1.30752 50.2077 -1.60046C49.9147 -1.8934 49.5174 -2.05797 49.1032 -2.05797C48.6889 -2.05797 48.2916 -1.8934 47.9986 -1.60046C47.7057 -1.30752 47.5411 -0.910211 47.5411 -0.495933C47.5411 -0.0816541 47.7057 0.315658 47.9986 0.608597C48.2916 0.901536 48.6889 1.06611 49.1032 1.06611C49.5174 1.06611 49.9147 0.901536 50.2077 0.608597C50.5006 0.315658 50.6652 -0.0816541 50.6652 -0.495933Z" fill="#232323"/>
<path id="Vector_3" d="M54.3595 9.10247C54.3567 10.5492 54.3563 12.0748 54.3581 13.6793C54.3609 15.1027 52.2469 15.1489 52.2539 13.6009C52.2614 11.9898 52.2614 10.2993 52.2539 8.52949C52.2521 8.10454 52.415 7.78279 52.7429 7.56424C53.5031 7.05617 54.3063 6.51962 55.1525 5.95457C55.1736 5.94038 55.1896 5.91981 55.1982 5.89586C55.2067 5.87191 55.2074 5.84585 55.2001 5.82148C54.6705 4.00027 55.6372 2.13423 57.3505 1.42956C59.7027 0.461515 62.2496 2.16785 62.3715 4.65591C62.4429 6.09747 61.6178 7.51521 60.3149 8.11061C58.9728 8.72515 57.6844 8.59019 56.4497 7.70574C56.4012 7.67118 56.3526 7.67072 56.304 7.70434L54.4352 8.95817C54.3847 8.99273 54.3595 9.04083 54.3595 9.10247ZM60.2813 4.82262C60.2813 4.40834 60.1167 4.01103 59.8238 3.71809C59.5308 3.42515 59.1335 3.26058 58.7192 3.26058C58.3049 3.26058 57.9076 3.42515 57.6147 3.71809C57.3218 4.01103 57.1572 4.40834 57.1572 4.82262C57.1572 5.2369 57.3218 5.63421 57.6147 5.92715C57.9076 6.22009 58.3049 6.38466 58.7192 6.38466C59.1335 6.38466 59.5308 6.22009 59.8238 5.92715C60.1167 5.63421 60.2813 5.2369 60.2813 4.82262Z" fill="#232323"/>
<path id="Vector_4" d="M42.1983 8.41591C42.1917 8.43005 42.19 8.44598 42.1932 8.46136C42.1965 8.47674 42.2047 8.49076 42.2165 8.50136C43.3167 9.49042 44.415 10.487 45.5115 11.491C45.7636 11.7235 45.8421 12.0751 45.8407 12.4072C45.8276 14.7869 45.8253 17.26 45.8337 19.8265C45.8379 21.2653 43.7351 21.2681 43.7337 19.8587C43.7327 17.5154 43.7332 15.1521 43.7351 12.7686C43.7351 12.7303 43.7211 12.6981 43.6931 12.6719L40.838 10.076C40.8025 10.0433 40.7632 10.0377 40.7203 10.0592C39.1326 10.8278 37.7017 10.6737 36.4278 9.59689C35.0185 8.4075 34.8434 6.20944 35.8913 4.75387C37.0708 3.11898 39.2969 2.72952 40.9528 3.86988C42.428 4.88415 42.9267 6.79223 42.1983 8.41591ZM40.4331 6.87488C40.4331 6.4606 40.2685 6.06329 39.9756 5.77035C39.6826 5.47741 39.2853 5.31284 38.871 5.31284C38.4568 5.31284 38.0595 5.47741 37.7665 5.77035C37.4736 6.06329 37.309 6.4606 37.309 6.87488C37.309 7.28916 37.4736 7.68647 37.7665 7.97941C38.0595 8.27235 38.4568 8.43692 38.871 8.43692C39.2853 8.43692 39.6826 8.27235 39.9756 7.97941C40.2685 7.68647 40.4331 7.28916 40.4331 6.87488Z" fill="#232323"/>
<path id="Vector_5" d="M38.7958 47.0993C39.8409 48.5114 41.3665 49.2595 43.056 49.7092C45.6463 50.4013 48.0896 51.5346 50.0957 53.1219C51.9141 54.5592 53.3991 56.5037 53.8222 58.7508C54.0786 60.1041 52.0822 60.5314 51.7754 59.1557C51.0105 55.7262 47.4367 53.4231 44.3519 52.3304C43.5281 52.039 42.6245 51.749 41.6411 51.4604C39.3786 50.7963 37.2702 49.2021 36.3652 46.9606C36.3418 46.9045 36.3003 46.8728 36.2405 46.8653C35.0123 46.714 33.8332 46.4623 32.7031 46.1102C32.6546 46.0953 32.6116 46.1046 32.5742 46.1382C29.4614 48.8672 25.0793 49.5481 21.2687 48.1093C18.7405 47.1539 16.8875 45.4859 15.7098 43.1052C15.6827 43.0492 15.6384 43.0244 15.5767 43.031C13.5132 43.2509 11.4412 43.2215 9.48128 42.7942C5.11737 41.8402 1.98489 38.9781 0.661007 34.6464C-0.183288 31.8884 -0.218778 29.0674 0.554536 26.1833C0.802034 25.2597 1.2027 24.3761 1.75654 23.5328C1.78455 23.4917 1.79016 23.4473 1.77335 23.3997C1.30637 22.0996 1.22838 20.8467 1.53939 19.641C2.11938 17.3874 3.56654 15.851 5.88088 15.0319C5.92851 15.0151 5.95606 14.9815 5.96354 14.9311C6.41464 12.1838 7.8632 9.77983 10.2406 8.44474C12.2257 7.3296 14.4952 7.07883 16.7493 7.26095C16.7769 7.26316 16.8046 7.25942 16.8305 7.24999C16.8564 7.24056 16.8798 7.22566 16.8992 7.20632C18.2217 5.89785 19.8061 4.94755 21.6526 4.35542C22.8817 3.96036 24.3251 3.74368 25.9829 3.70539C26.6749 3.68998 27.2115 4.25175 27.0854 4.95502C26.9649 5.61766 26.4129 5.8292 25.7811 5.8264C22.1639 5.80959 18.712 7.46129 16.93 10.605C16.1777 11.9331 14.2557 10.668 15.2223 9.38897C15.2587 9.33947 15.2461 9.31472 15.1845 9.31472C11.5799 9.33854 8.99515 11.1752 8.13778 14.7223C8.13574 14.7311 8.13562 14.7403 8.13742 14.7491C8.13922 14.758 8.1429 14.7663 8.14821 14.7736C8.15353 14.7809 8.16035 14.787 8.16822 14.7915C8.17609 14.7959 8.18482 14.7986 8.19382 14.7994C9.56113 14.9199 10.7781 15.4228 11.8447 16.3082C12.1771 16.5846 12.3789 16.8564 12.4499 17.1235C12.653 17.887 11.9245 18.5931 11.1456 18.3675C10.7996 18.2681 10.5628 17.9767 10.2826 17.7511C9.13525 16.8209 7.49756 16.6738 6.19609 17.1655C3.34379 18.2457 2.51444 21.9007 4.68729 24.124C5.74779 25.2083 4.1045 26.7045 3.10423 25.5011C3.09941 25.4952 3.09316 25.4906 3.08606 25.4877C3.07896 25.4849 3.07125 25.4839 3.06367 25.4849C3.05609 25.4859 3.04889 25.4888 3.04275 25.4933C3.03661 25.4979 3.03173 25.5039 3.02858 25.5109C1.92045 28.0648 1.84059 31.1959 2.58869 33.7834C3.62071 37.3492 5.85753 39.6169 9.29916 40.5863C10.9756 41.058 12.8683 41.1883 14.9771 40.9772C15.0341 40.9716 15.0589 40.9403 15.0514 40.8833C14.7535 38.5979 15.2517 36.5442 16.5462 34.722C16.5826 34.6707 16.5705 34.6361 16.5098 34.6184C15.615 34.3587 14.8118 33.9132 14.1002 33.2819C14.0619 33.2483 14.0189 33.2408 13.9713 33.2595C11.4216 34.2691 9.13665 33.923 7.1165 32.2214C5.88088 31.1805 7.33225 29.5512 8.44179 30.5767C9.5121 31.5676 10.7813 31.9155 12.2495 31.6204C12.3784 31.5951 12.5017 31.5559 12.6194 31.5027C12.6698 31.4803 12.6819 31.4448 12.6558 31.3962C12.1916 30.5332 11.9619 29.5101 11.9665 28.3268C11.9721 26.7479 14.124 26.7745 14.0763 28.366C14.038 29.6726 14.4887 30.7672 15.4282 31.6498C17.0113 33.1362 19.4363 33.1488 21.0642 31.7689C21.9458 31.0217 22.4385 30.0635 22.5422 28.8942C22.615 28.083 23.3505 27.5591 24.121 27.9667C27.7144 29.8636 31.9522 30.2657 35.7319 28.7204C36.1957 28.5313 36.6636 28.6966 36.9942 29.0567C38.6081 30.805 39.3239 32.8784 38.9877 35.2418C38.9326 35.6303 38.8051 35.9184 38.6053 36.1061C38.0617 36.6161 37.1469 36.3849 36.9101 35.6593C36.8485 35.4687 36.842 35.2455 36.8905 34.9896C37.1614 33.5737 36.827 32.2414 35.8875 30.9927C35.8731 30.9736 35.853 30.9595 35.8301 30.9524C35.8072 30.9454 35.7826 30.9458 35.76 30.9535C32.0405 32.2256 28.1053 31.9594 24.4614 30.4632C24.4119 30.4426 24.3779 30.4576 24.3592 30.508C23.4869 32.8821 21.8029 34.3204 19.3074 34.8229C19.2159 34.8406 19.136 34.8855 19.0679 34.9574C18.4449 35.6074 17.9779 36.2659 17.6669 36.9327C16.1539 40.1703 17.6165 43.7118 20.5781 45.4574C24.1182 47.5448 28.7161 47.1035 31.651 44.1139C31.941 43.8183 32.3907 43.7763 32.7662 43.9135C36.1354 45.1506 40.009 45.2038 43.4819 44.352C43.7117 44.296 43.9209 44.282 44.1095 44.31C45.1924 44.4725 45.2597 46.0388 44.2216 46.3288C42.6656 46.763 40.8692 46.9951 38.8322 47.025C38.7715 47.026 38.7594 47.0507 38.7958 47.0993Z" fill="#232323"/>
<path id="Vector_6" d="M50.1552 24.13C50.1552 24.4039 50.0465 24.6665 49.8528 24.8601C49.6592 25.0537 49.3966 25.1625 49.1228 25.1625H49.0891C48.8153 25.1625 48.5527 25.0537 48.3591 24.8601C48.1654 24.6665 48.0566 24.4039 48.0566 24.13V10.1067C48.0566 9.83287 48.1654 9.57026 48.3591 9.37663C48.5527 9.183 48.8153 9.07422 49.0891 9.07422H49.1228C49.3966 9.07422 49.6592 9.183 49.8528 9.37663C50.0465 9.57026 50.1552 9.83287 50.1552 10.1067V24.13Z" fill="#232323"/>
<path id="Vector_7" d="M24.2519 19.3544C23.0667 21.5866 21.1844 22.7661 18.6048 22.8932C18.2321 22.9114 17.7432 22.8595 17.4546 22.5794C16.9475 22.0862 17.0511 21.2597 17.6605 20.9151C17.8352 20.8161 18.0528 20.7703 18.3134 20.7778C19.7993 20.8217 20.9826 20.2968 21.8633 19.2031C22.8319 18.0002 23.0593 16.6067 22.5456 15.0227C22.4821 14.8266 22.3873 14.6277 22.2612 14.4259C22.1141 14.1906 21.918 13.9482 21.8745 13.6722C21.7401 12.8261 22.5316 12.1578 23.3287 12.5249C23.5491 12.6267 23.7546 12.8345 23.9451 13.1483C24.6802 14.3596 24.9968 15.6639 24.895 17.0611C24.8933 17.0848 24.8975 17.1085 24.9073 17.1303C24.9171 17.152 24.9321 17.1711 24.951 17.1858C25.6076 17.6892 26.3192 17.9773 27.086 18.0501C28.7069 18.2056 28.4547 20.3967 26.803 20.1445C25.8252 19.9951 25.0187 19.7201 24.3836 19.3194C24.3276 19.2839 24.2837 19.2956 24.2519 19.3544Z" fill="#232323"/>
<path id="Vector_8" d="M54.3505 24.1379C54.3503 24.2722 54.3236 24.4051 54.272 24.5291C54.2204 24.6531 54.1449 24.7657 54.0498 24.8605C53.9546 24.9553 53.8418 25.0304 53.7176 25.0816C53.5934 25.1328 53.4604 25.159 53.3261 25.1588L53.2729 25.1587C53.1386 25.1584 53.0056 25.1318 52.8816 25.0802C52.7576 25.0285 52.645 24.953 52.5502 24.8579C52.4554 24.7628 52.3803 24.6499 52.3291 24.5257C52.2779 24.4016 52.2517 24.2685 52.252 24.1342L52.2645 16.9643C52.2647 16.83 52.2914 16.697 52.343 16.573C52.3946 16.449 52.4701 16.3364 52.5653 16.2416C52.6604 16.1468 52.7733 16.0717 52.8974 16.0205C53.0216 15.9693 53.1546 15.9431 53.2889 15.9434L53.3422 15.9435C53.4765 15.9437 53.6094 15.9704 53.7334 16.022C53.8574 16.0736 53.97 16.1491 54.0648 16.2443C54.1596 16.3394 54.2347 16.4523 54.2859 16.5764C54.3371 16.7006 54.3633 16.8336 54.3631 16.9679L54.3505 24.1379Z" fill="#232323"/>
<path id="Vector_9" d="M45.8195 24.1804C45.8195 24.4379 45.7172 24.6848 45.5351 24.8669C45.3531 25.049 45.1061 25.1513 44.8486 25.1513H44.7169C44.4595 25.1513 44.2125 25.049 44.0304 24.8669C43.8484 24.6848 43.7461 24.4379 43.7461 24.1804V23.0373C43.7461 22.7798 43.8484 22.5328 44.0304 22.3508C44.2125 22.1687 44.4595 22.0664 44.7169 22.0664H44.8486C45.1061 22.0664 45.3531 22.1687 45.5351 22.3508C45.7172 22.5328 45.8195 22.7798 45.8195 23.0373V24.1804Z" fill="#232323"/>
<path id="Vector_10" d="M56.1275 42.6159C52.2876 43.7437 48.3173 42.3848 45.8811 39.2341C45.7709 39.0921 45.6719 38.9446 45.5841 38.7914C45.3081 38.3095 45.5029 37.6931 45.9638 37.4157C46.4653 37.1131 47.0593 37.263 47.3885 37.7351C49.7925 41.1842 54.4534 41.9113 57.8142 39.4582C60.2883 37.6524 61.2521 34.5956 60.5321 31.6606C60.434 31.26 60.0866 30.6394 60.1412 30.2443C60.2967 29.0927 61.713 28.9036 62.1627 29.9655C63.8467 33.9344 62.506 38.4846 59.1577 41.0819C59.1213 41.1109 59.0961 41.1473 59.0821 41.1912C58.1337 44.2648 56.1303 46.9448 53.2332 48.3696C53.1828 48.3948 53.1776 48.4275 53.2178 48.4676C55.7717 51.0103 57.2777 54.36 57.3477 57.9674C57.3543 58.3026 57.308 58.5679 57.209 58.7631C56.8238 59.528 55.6456 59.5014 55.3262 58.679C55.258 58.5044 55.2258 58.3087 55.2295 58.092C55.273 54.7074 53.575 51.4586 50.9805 49.2606C50.9572 49.2409 50.9298 49.2266 50.9002 49.2188C50.8707 49.2111 50.8397 49.21 50.8096 49.2157C50.3893 49.296 49.9326 49.3708 49.4395 49.4399C49.093 49.4894 48.8067 49.4558 48.5807 49.339C48.1702 49.1275 47.9335 48.6161 48.0596 48.1678C48.195 47.6812 48.5186 47.4146 49.0304 47.3679C52.2245 47.0728 54.6089 45.5117 56.1836 42.6846C56.2219 42.6164 56.2032 42.5935 56.1275 42.6159Z" fill="#232323"/>
<path id="Vector_11" d="M33.239 36.8596C34.5577 37.5087 35.445 38.543 35.9007 39.9626C35.9969 40.2624 36.0156 40.5263 35.9568 40.7541C35.7466 41.5653 34.7534 41.8287 34.1748 41.1982C33.9619 40.9657 33.9184 40.6659 33.819 40.3703C33.55 39.5578 32.8467 38.9371 32.0398 38.6177C32.0005 38.6019 31.9665 38.6093 31.9375 38.6401C29.5181 41.1646 25.7734 41.2501 23.1396 39.059C22.6689 38.6682 22.3972 38.1596 22.7166 37.5712C23.0584 36.9394 23.8765 36.8652 24.3879 37.3471C26.74 39.5732 30.4427 38.5057 31.4009 35.4852C31.4813 35.2293 31.5303 34.9748 31.548 34.7217C31.6531 33.1961 33.8456 33.3824 33.641 34.9613C33.557 35.6039 33.4052 36.188 33.1857 36.7139C33.1577 36.7792 33.1755 36.8278 33.239 36.8596Z" fill="#232323"/>
</g>
</svg>
