<svg width="48" height="48" viewBox="0 0 48 48" fill="none" xmlns="http://www.w3.org/2000/svg">
<g id="&#208;&#180;&#208;&#183;&#208;&#181;&#208;&#189; 1">
<g clip-path="url(#clip0_403_1318)">
<path id="Vector" d="M28.6286 28.6286C24.8571 32.52 24.5829 37.3714 24.2571 48C34.1657 48 41.0057 47.9657 44.5371 44.5371C47.9657 41.0057 48 33.84 48 24.2571C37.3714 24.6 32.52 24.8571 28.6286 28.6286ZM0 24.2571C0 33.84 0.0342857 41.0057 3.46286 44.5371C6.99429 47.9657 13.8343 48 23.7429 48C23.4 37.3714 23.1429 32.52 19.3714 28.6286C15.48 24.8571 10.6286 24.5829 0 24.2571ZM23.7429 0C13.8514 0 6.99429 0.0342857 3.46286 3.46286C0.0342857 6.99429 0 14.16 0 23.7429C10.6286 23.4 15.48 23.1429 19.3714 19.3714C23.1429 15.48 23.4171 10.6286 23.7429 0ZM28.6286 19.3714C24.8571 15.48 24.5829 10.6286 24.2571 0C34.1657 0 41.0057 0.0342857 44.5371 3.46286C47.9657 6.99429 48 14.16 48 23.7429C37.3714 23.4 32.52 23.1429 28.6286 19.3714Z" fill="#74B65F"/>
<path id="Vector_2" d="M48 24.2571V23.7429C37.3714 23.4 32.52 23.1429 28.6286 19.3714C24.8571 15.48 24.5829 10.6286 24.2571 0H23.7429C23.4 10.6286 23.1429 15.48 19.3714 19.3714C15.48 23.1429 10.6286 23.4171 0 23.7429V24.2571C10.6286 24.6 15.48 24.8571 19.3714 28.6286C23.1429 32.52 23.4171 37.3714 23.7429 48H24.2571C24.6 37.3714 24.8571 32.52 28.6286 28.6286C32.52 24.8571 37.3714 24.5829 48 24.2571Z" fill="white"/>
</g>
</g>
<defs>
<clipPath id="clip0_403_1318">
<rect width="48" height="48" rx="24" fill="white"/>
</clipPath>
</defs>
</svg>
