<svg width="16" height="20" viewBox="0 0 16 20" fill="none" xmlns="http://www.w3.org/2000/svg">
<path id="Vector" d="M6.28393 2.25722C6.05728 1.4979 5.5085 1 4.89823 1H2.84554C2.06466 1 1.43164 1.8481 1.43164 2.89453C1.43164 11.7892 6.81249 19 13.4499 19C14.2308 19 14.8637 18.1516 14.8637 17.1052L14.864 14.354C14.864 13.5361 14.4926 12.8009 13.9259 12.4971L11.9586 11.4429C11.4496 11.1701 10.8701 11.2929 10.449 11.7632L9.94121 12.3307C9.34823 12.9929 8.47572 12.9402 7.9299 12.2088L6.50016 10.2911C5.95434 9.55962 5.91401 8.39134 6.40817 7.59668L6.83156 6.9163C7.1825 6.35195 7.27494 5.57516 7.07135 4.89309L6.28393 2.25722Z" stroke="#B4B4B4" stroke-width="2" stroke-linecap="round" stroke-linejoin="round"/>
</svg>
