<svg width="18" height="14" viewBox="0 0 18 14" fill="none" xmlns="http://www.w3.org/2000/svg">
<g id="Vector">
<path fill-rule="evenodd" clip-rule="evenodd" d="M16.7143 1.27273H1.28571V8.90909H6.42857L9.64286 12.0909L12.8571 8.90909H16.7143V1.27273ZM1.28571 0C0.575634 0 0 0.569819 0 1.27273V8.90909C0 9.612 0.575634 10.1818 1.28571 10.1818H6.42857L9.64286 14L12.8571 10.1818H16.7143C17.4244 10.1818 18 9.612 18 8.90909V1.27273C18 0.569819 17.4244 0 16.7143 0H1.28571Z" fill="#B4B4B4"/>
<path d="M2.57143 2.54545H15.4286V3.81818H2.57143V2.54545Z" fill="#B4B4B4"/>
<path d="M2.57143 5.09091H10.2857V6.36364H2.57143V5.09091Z" fill="#B4B4B4"/>
</g>
</svg>
