<svg width="48" height="48" viewBox="0 0 48 48" fill="none" xmlns="http://www.w3.org/2000/svg">
<g id="Youtube">
<path id="Combined-Shape" d="M0 24C0 10.7452 10.7452 0 24 0C37.2548 0 48 10.7452 48 24C48 37.2548 37.2548 48 24 48C10.7452 48 0 37.2548 0 24Z" fill="#74B65F"/>
<path id="Combined-Shape-path" d="M36.2652 18.0734C35.9708 16.9424 35.1033 16.0518 34.0018 15.7495C32.0056 15.2002 24.0002 15.2002 24.0002 15.2002C24.0002 15.2002 15.9948 15.2002 13.9984 15.7495C12.8969 16.0518 12.0294 16.9424 11.735 18.0734C11.2002 20.1232 11.2002 24.4002 11.2002 24.4002C11.2002 24.4002 11.2002 28.677 11.735 30.727C12.0294 31.858 12.8969 32.7486 13.9984 33.051C15.9948 33.6002 24.0002 33.6002 24.0002 33.6002C24.0002 33.6002 32.0056 33.6002 34.0018 33.051C35.1033 32.7486 35.9708 31.858 36.2652 30.727C36.8002 28.677 36.8002 24.4002 36.8002 24.4002C36.8002 24.4002 36.8002 20.1232 36.2652 18.0734Z" fill="#DADADA"/>
<path id="Fill-2" d="M21.5996 28.8V20.8L27.9996 24.8002L21.5996 28.8Z" fill="#74B65F"/>
</g>
</svg>
