<svg width="26" height="23" viewBox="0 0 26 23" fill="none" xmlns="http://www.w3.org/2000/svg">
<path id="&#226;&#128;&#156;" fill-rule="evenodd" clip-rule="evenodd" d="M17.3479 19.1902V22.3887C20.2466 21.6683 22.4133 20.0403 23.848 17.5046C25.2827 14.9689 26 11.5255 26 7.17449V-0.00038147H16.2499V9.59493H20.4223V10.589C20.4223 12.923 20.1661 14.8032 19.6537 16.2295C19.1413 17.6559 18.3727 18.6428 17.3479 19.1902ZM1.09798 19.1902V22.3887C3.99666 21.6683 6.16333 20.0403 7.59803 17.5046C9.03273 14.9689 9.75007 11.5255 9.75007 7.17449V-0.00038147H0V9.59493H4.17233V10.589C4.17233 12.923 3.91613 14.8032 3.40374 16.2295C2.89135 17.6559 2.12277 18.6428 1.09798 19.1902Z" fill="#464646"/>
</svg>
