<svg width="26" height="23" viewBox="0 0 26 23" fill="none" xmlns="http://www.w3.org/2000/svg">
<path id="&#226;&#128;&#156;" fill-rule="evenodd" clip-rule="evenodd" d="M8.65209 3.19844V0C5.75341 0.720372 3.58675 2.34839 2.15204 4.8841C0.71734 7.41981 0 10.8631 0 15.2142V22.3891H9.75007V12.7937H5.57774V11.7996C5.57774 9.46563 5.83394 7.58549 6.34633 6.15915C6.85872 4.73281 7.6273 3.74592 8.65209 3.19844ZM24.902 3.19844V0C22.0033 0.720372 19.8367 2.34839 18.402 4.8841C16.9673 7.41981 16.2499 10.8631 16.2499 15.2142V22.3891H26V12.7937H21.8277V11.7996C21.8277 9.46563 22.0839 7.58549 22.5963 6.15915C23.1087 4.73281 23.8772 3.74592 24.902 3.19844Z" fill="#464646"/>
</svg>
