<svg width="12" height="17" viewBox="0 0 12 17" fill="none" xmlns="http://www.w3.org/2000/svg">
<path id="Vector" d="M11.7148 8.27449C10.9396 7.398 9.90599 6.7983 8.82931 6.56765C8.35558 6.42925 7.88184 6.33699 7.4081 6.29086C8.61398 4.76854 8.39864 2.46199 6.97743 1.17032C5.55622 -0.121343 3.40287 0.109312 2.19699 1.63163C0.991118 3.15395 1.20645 5.4605 2.62766 6.75217C2.88607 6.98282 3.14447 7.16735 3.40287 7.25961V8.27449L2.7138 7.58253C2.11086 6.93669 1.12032 6.93669 0.474313 7.58253C-0.128625 8.22836 -0.171692 9.24324 0.431246 9.88908L2.41233 12.3801C2.49846 13.026 2.7138 13.6257 3.01527 14.1793C3.2306 14.5944 3.53207 15.0096 3.83354 15.3325V16.209C3.83354 16.4858 4.00581 16.6703 4.26421 16.6703H10.1213C10.3367 16.6703 10.552 16.4397 10.552 16.209V15.0096C11.3703 13.9486 11.8009 12.6108 11.8009 11.273V8.59741C11.844 8.41288 11.8009 8.32062 11.7148 8.27449ZM2.24006 3.93818C2.24006 2.41586 3.40287 1.21645 4.82408 1.26259C6.24529 1.26259 7.36503 2.50812 7.32197 4.03044C7.32197 4.8608 6.97743 5.5989 6.37449 6.10634V3.79979C6.33143 2.96943 5.68542 2.3236 4.91021 2.3236C4.13501 2.27747 3.44594 2.96943 3.44594 3.79979V6.1986C2.7138 5.73729 2.28313 4.8608 2.24006 3.93818ZM10.9827 11.2269C11.0257 12.4263 10.6381 13.5796 9.90599 14.5022C9.81985 14.5944 9.73372 14.6867 9.73372 14.8251V15.7938H4.73795V15.148C4.73795 15.0096 4.65181 14.8712 4.56568 14.779C4.26421 14.5022 4.00581 14.1793 3.79047 13.7641C3.53207 13.3028 3.3598 12.7492 3.27367 12.1956C3.27367 12.1034 3.2306 12.0111 3.18753 11.9188L1.12032 9.28937C0.991118 9.15098 0.904984 8.96646 0.904984 8.7358C0.904984 8.55128 0.991118 8.32062 1.12032 8.18223C1.42179 7.90544 1.85246 7.90544 2.15393 8.18223L3.40287 9.52003V10.904L4.22114 10.4426V3.79979C4.26421 3.47687 4.52261 3.20009 4.86715 3.24622C5.16862 3.24622 5.47009 3.47687 5.47009 3.79979V9.10485L6.33143 9.28937V7.16735C6.37449 7.12122 6.41756 7.12122 6.46063 7.07509C6.7621 7.07509 7.06356 7.12122 7.36503 7.16735V9.52003L8.05411 9.65842V7.25961L8.57091 7.398C8.78625 7.44413 9.00158 7.5364 9.21692 7.62866V9.93521L9.90599 10.0736V7.95157C10.2936 8.1361 10.6381 8.41288 10.9396 8.7358L10.9827 11.2269Z" fill="#929292"/>
</svg>
