<svg width="48" height="48" viewBox="0 0 48 48" fill="none" xmlns="http://www.w3.org/2000/svg">
<g id="Telegram">
<path id="Combined-Shape" d="M24 48C10.7452 48 0 37.2548 0 24C0 10.7452 10.7452 0 24 0C37.2548 0 48 10.7452 48 24C48 37.2548 37.2548 48 24 48Z" fill="#74B65F"/>
<path id="Combined-Shape-path" d="M20.0078 28.8818L19.5995 34.9995C20.1995 34.9995 20.4646 34.7251 20.7994 34.3995L23.6822 31.5964L29.6794 36.0273C30.7831 36.6363 31.5797 36.321 31.8547 35.0026L35.7916 16.45C36.1947 14.834 35.1756 14.101 34.1198 14.5804L11.0018 23.4946C9.42375 24.1275 9.43295 25.0079 10.7141 25.4002L16.6467 27.2518L30.3813 18.5868C31.0297 18.1936 31.6248 18.405 31.1364 18.8385L20.0075 28.8815L20.0078 28.8818Z" fill="white"/>
</g>
</svg>
