<svg width="48" height="48" viewBox="0 0 48 48" fill="none" xmlns="http://www.w3.org/2000/svg">
<g id="VK">
<path id="Combined-Shape" d="M0 24C0 10.7452 10.7452 0 24 0C37.2548 0 48 10.7452 48 24C48 37.2548 37.2548 48 24 48C10.7452 48 0 37.2548 0 24Z" fill="#74B65F"/>
<path id="Combined-Shape-path" d="M25.2557 31.8757C25.2557 31.8757 25.7177 31.8253 25.9543 31.5758C26.1709 31.3472 26.1634 30.9158 26.1634 30.9158C26.1634 30.9158 26.1346 28.9014 27.0875 28.6039C28.0265 28.3114 29.2323 30.552 30.512 31.4136C31.4786 32.065 32.2123 31.9224 32.2123 31.9224L35.6318 31.8757C35.6318 31.8757 37.4198 31.7675 36.5721 30.3873C36.502 30.2742 36.0775 29.366 34.0304 27.5003C31.8855 25.5473 32.1735 25.8632 34.7553 22.4845C36.328 20.4271 36.9565 19.171 36.7599 18.6339C36.5734 18.1201 35.4164 18.2565 35.4164 18.2565L31.5675 18.2799C31.5675 18.2799 31.282 18.2418 31.0704 18.3659C30.8638 18.4876 30.7298 18.7715 30.7298 18.7715C30.7298 18.7715 30.1213 20.3631 29.3087 21.7176C27.5946 24.5739 26.9097 24.7251 26.6292 24.5481C25.9769 24.1339 26.1396 22.8864 26.1396 22.0002C26.1396 19.2312 26.5679 18.0771 25.307 17.7784C24.8888 17.6789 24.5808 17.6137 23.5102 17.6027C22.1367 17.5892 20.9747 17.6076 20.3161 17.9235C19.8779 18.1336 19.5398 18.6031 19.7464 18.6302C20.0006 18.6634 20.5766 18.7826 20.8821 19.1906C21.2765 19.7179 21.2627 20.9002 21.2627 20.9002C21.2627 20.9002 21.4894 24.1597 20.7331 24.564C20.2147 24.8418 19.5035 24.2752 17.9747 21.6831C17.1922 20.3558 16.6012 18.8883 16.6012 18.8883C16.6012 18.8883 16.4872 18.6142 16.2831 18.4667C16.0365 18.2885 15.6921 18.2332 15.6921 18.2332L12.0348 18.2565C12.0348 18.2565 11.4851 18.2713 11.2835 18.506C11.1045 18.7137 11.2697 19.1451 11.2697 19.1451C11.2697 19.1451 14.1333 25.7218 17.3762 29.0366C20.3499 32.0748 23.7256 31.8757 23.7256 31.8757H25.2557Z" fill="#DADADA"/>
</g>
</svg>
