<svg width="48" height="48" viewBox="0 0 48 48" fill="none" xmlns="http://www.w3.org/2000/svg">
<g id="WhatsApp">
<path id="Combined-Shape" d="M24 48C10.7452 48 0 37.2548 0 24C0 10.7452 10.7452 0 24 0C37.2548 0 48 10.7452 48 24C48 37.2548 37.2548 48 24 48Z" fill="#74B65F"/>
<path id="Combined-Shape-path" d="M24.7915 37.3523C32.6599 37.3491 39.0594 30.9481 39.0625 23.0813C39.064 19.2681 37.581 15.6826 34.8866 12.9852C32.1922 10.2877 28.609 8.80145 24.7913 8.7998C16.9252 8.7998 10.5232 15.2015 10.52 23.07C10.519 25.5853 11.1761 28.0403 12.425 30.2046L10.4004 37.5998L17.9657 35.6153C20.0502 36.7522 22.3971 37.3515 24.7856 37.3523H24.7915Z" fill="#DADADA"/>
<path id="Combined-Shape_2" fill-rule="evenodd" clip-rule="evenodd" d="M13.827 34.2091L18.3164 33.0314L18.7495 33.2885C20.5707 34.3692 22.6583 34.941 24.7868 34.9419H24.7916C31.3293 34.9419 36.6504 29.6207 36.653 23.0802C36.6543 19.9107 35.4217 16.9306 33.1822 14.6885C30.9427 12.4464 27.9645 11.2111 24.7963 11.21C18.2534 11.21 12.9323 16.5306 12.9297 23.0706C12.9288 25.3119 13.5559 27.4946 14.7432 29.3832L15.0253 29.832L13.827 34.2091ZM31.4929 26.1536C31.7416 26.2738 31.9096 26.3549 31.9813 26.4747C32.0704 26.6233 32.0704 27.3373 31.7734 28.1704C31.4761 29.0033 30.0516 29.7635 29.3664 29.8659C28.7521 29.9577 27.9746 29.996 27.1205 29.7245C26.6025 29.5602 25.9384 29.3408 25.0876 28.9734C21.7447 27.5299 19.4855 24.2899 19.0586 23.6776C19.0287 23.6347 19.0077 23.6047 18.9961 23.5891L18.9932 23.5852C18.8045 23.3334 17.54 21.6464 17.54 19.9003C17.54 18.2578 18.3469 17.3968 18.7183 17.0005C18.7437 16.9734 18.7671 16.9484 18.7881 16.9255C19.1149 16.5685 19.5012 16.4793 19.739 16.4793C19.9766 16.4793 20.2146 16.4815 20.4224 16.4919C20.448 16.4932 20.4747 16.493 20.5023 16.4929C20.7101 16.4917 20.9691 16.4901 21.2247 17.104C21.323 17.3403 21.4669 17.6905 21.6186 18.0599C21.9254 18.8069 22.2645 19.6323 22.3241 19.7517C22.4133 19.9302 22.4727 20.1384 22.3538 20.3765C22.336 20.4122 22.3195 20.4459 22.3037 20.4781C22.2145 20.6603 22.1488 20.7944 21.9973 20.9713C21.9377 21.0409 21.8761 21.1159 21.8145 21.1908C21.6918 21.3402 21.5692 21.4896 21.4624 21.596C21.2839 21.7739 21.098 21.9668 21.306 22.3238C21.514 22.6808 22.2297 23.8484 23.2898 24.794C24.4293 25.8104 25.4197 26.24 25.9217 26.4578C26.0197 26.5003 26.0991 26.5347 26.1574 26.5639C26.5138 26.7424 26.7219 26.7126 26.9299 26.4747C27.1379 26.2367 27.8213 25.4334 28.059 25.0765C28.2966 24.7196 28.5345 24.779 28.8612 24.898C29.1882 25.0171 30.9413 25.8796 31.2979 26.0581C31.3675 26.093 31.4326 26.1244 31.4929 26.1536Z" fill="#74B65F"/>
</g>
</svg>
