<svg width="565" height="138" viewBox="0 0 565 138" fill="none" xmlns="http://www.w3.org/2000/svg">
<path d="M8.4668 92.9297V21.709H17.6807L61.2598 79.084V21.709H69.9756V92.9297H60.7617L17.1826 35.0566V92.9297H8.4668ZM133.526 21.709V29.1797H96.1729V53.0859H131.783V60.5566H96.1729V85.459H134.273V92.9297H86.959V21.709H133.526ZM211.819 21.709L181.588 92.9297H171.378L140.997 21.709H150.709L176.807 83.3672L202.257 21.709H211.819ZM221.531 92.9297V21.709H251.912C265.459 21.709 272.232 27.4033 272.232 38.792C272.232 48.0557 265.608 54.9121 252.36 59.3613L276.814 92.9297H264.662L242.001 60.9053V54.8789C255.614 52.7207 262.421 47.4912 262.421 39.1904C262.421 32.6162 258.636 29.3291 251.065 29.3291H230.745V92.9297H221.531ZM293.798 57.1201C293.798 76.3447 302.48 85.957 319.846 85.957C336.846 85.957 345.346 76.3447 345.346 57.1201C345.346 38.1611 336.846 28.6816 319.846 28.6816C302.48 28.6816 293.798 38.1611 293.798 57.1201ZM284.086 57.4189C284.086 33.2803 296.006 21.2109 319.846 21.2109C343.32 21.2109 355.058 33.2803 355.058 57.4189C355.058 81.4248 343.32 93.4277 319.846 93.4277C296.006 93.4277 284.086 81.4248 284.086 57.4189ZM390.967 63.0469V70.5176H366.064V63.0469H390.967ZM411.636 57.1201C411.636 76.3447 420.318 85.957 437.684 85.957C454.684 85.957 463.184 76.3447 463.184 57.1201C463.184 38.1611 454.684 28.6816 437.684 28.6816C420.318 28.6816 411.636 38.1611 411.636 57.1201ZM401.924 57.4189C401.924 33.2803 413.844 21.2109 437.684 21.2109C461.158 21.2109 472.896 33.2803 472.896 57.4189C472.896 81.4248 461.158 93.4277 437.684 93.4277C413.844 93.4277 401.924 81.4248 401.924 57.4189ZM487.389 92.9297V21.709H496.603L540.182 79.084V21.709H548.897V92.9297H539.684L496.104 35.0566V92.9297H487.389Z" fill="url(#paint0_linear_222_21721)"/>
<path d="M14.8545 127.93L10.3185 121.99H8.95047V127.93H7.11447V114.88H8.95047V120.406H10.2645L14.6565 114.88H16.8705L11.8305 121.054L17.0505 127.93H14.8545ZM33.594 127.93H31.758V116.464H27.15L27.06 118.732C27 120.22 26.892 121.504 26.736 122.584C26.592 123.652 26.376 124.606 26.088 125.446C25.8 126.274 25.422 126.898 24.954 127.318C24.486 127.726 23.922 127.93 23.262 127.93H22.722V126.346H22.992C23.328 126.346 23.622 126.202 23.874 125.914C24.138 125.626 24.348 125.248 24.504 124.78C24.672 124.3 24.81 123.7 24.918 122.98C25.038 122.248 25.122 121.51 25.17 120.766C25.23 120.01 25.278 119.146 25.314 118.174L25.404 114.88H33.594V127.93ZM50.7745 127.93V117.562L43.7545 127.93H41.9185V114.88H43.7545V125.23L50.7745 114.88H52.6105V127.93H50.7745ZM69.6229 114.88H71.4589V127.93H69.6229V122.008H62.7649V127.93H60.9289V114.88H62.7649V120.424H69.6229V114.88ZM88.637 127.93V117.562L81.617 127.93H79.781V114.88H81.617V125.23L88.637 114.88H90.473V127.93H88.637ZM106.531 127.93L101.995 121.99H100.627V127.93H98.7914V114.88H100.627V120.406H101.941L106.333 114.88H108.547L103.507 121.054L108.727 127.93H106.531ZM113.949 127.93L118.791 114.88H120.915L125.829 127.93H123.849L122.823 125.104H116.829L115.821 127.93H113.949ZM119.799 116.734L117.387 123.538H122.247L119.799 116.734ZM150.331 114.88H152.167V127.93H150.331V122.008H143.473V127.93H141.637V114.88H143.473V120.424H150.331V114.88ZM160.489 127.93V114.88H169.345V116.464H162.325V120.424H168.931V122.008H162.325V126.346H169.345V127.93H160.489ZM176.828 127.93V114.88H181.526C184.586 114.88 186.116 115.954 186.116 118.102C186.116 118.726 185.99 119.302 185.738 119.83C185.486 120.346 185.132 120.73 184.676 120.982C185.996 121.534 186.656 122.566 186.656 124.078C186.656 125.386 186.224 126.358 185.36 126.994C184.508 127.618 183.38 127.93 181.976 127.93H176.828ZM178.664 121.918V126.382H181.994C183.842 126.382 184.766 125.62 184.766 124.096C184.766 123.34 184.532 122.788 184.064 122.44C183.596 122.092 182.87 121.918 181.886 121.918H178.664ZM178.664 116.428V120.46H181.814C183.446 120.46 184.262 119.758 184.262 118.354C184.262 117.706 184.046 117.226 183.614 116.914C183.182 116.59 182.582 116.428 181.814 116.428H178.664ZM193.992 114.88H198.078C199.842 114.88 201.186 115.162 202.11 115.726C203.034 116.29 203.496 117.322 203.496 118.822C203.496 119.614 203.364 120.274 203.1 120.802C202.848 121.33 202.47 121.738 201.966 122.026C201.462 122.302 200.898 122.494 200.274 122.602C199.662 122.71 198.93 122.764 198.078 122.764H195.828V127.93H193.992V114.88ZM198.222 116.428H195.828V121.162H198.222C198.786 121.162 199.242 121.138 199.59 121.09C199.938 121.042 200.28 120.946 200.616 120.802C200.964 120.646 201.216 120.406 201.372 120.082C201.54 119.758 201.624 119.338 201.624 118.822C201.624 118.306 201.54 117.886 201.372 117.562C201.216 117.226 200.97 116.98 200.634 116.824C200.298 116.668 199.944 116.566 199.572 116.518C199.212 116.458 198.762 116.428 198.222 116.428ZM212.599 117.58C211.807 118.492 211.411 119.764 211.411 121.396C211.411 123.028 211.807 124.306 212.599 125.23C213.403 126.154 214.423 126.616 215.659 126.616C216.895 126.616 217.909 126.154 218.701 125.23C219.505 124.306 219.907 123.028 219.907 121.396C219.907 119.764 219.505 118.492 218.701 117.58C217.909 116.656 216.895 116.194 215.659 116.194C214.423 116.194 213.403 116.656 212.599 117.58ZM220.105 116.536C221.221 117.784 221.779 119.404 221.779 121.396C221.779 123.388 221.221 125.014 220.105 126.274C219.001 127.534 217.519 128.164 215.659 128.164C213.799 128.164 212.311 127.534 211.195 126.274C210.091 125.014 209.539 123.388 209.539 121.396C209.539 119.404 210.091 117.784 211.195 116.536C212.311 115.276 213.799 114.646 215.659 114.646C217.519 114.646 219.001 115.276 220.105 116.536ZM238.973 127.93H237.137V116.464H232.529L232.439 118.732C232.379 120.22 232.271 121.504 232.115 122.584C231.971 123.652 231.755 124.606 231.467 125.446C231.179 126.274 230.801 126.898 230.333 127.318C229.865 127.726 229.301 127.93 228.641 127.93H228.101V126.346H228.371C228.707 126.346 229.001 126.202 229.253 125.914C229.517 125.626 229.727 125.248 229.883 124.78C230.051 124.3 230.189 123.7 230.297 122.98C230.417 122.248 230.501 121.51 230.549 120.766C230.609 120.01 230.657 119.146 230.693 118.174L230.783 114.88H238.973V127.93ZM249.547 117.58C248.755 118.492 248.359 119.764 248.359 121.396C248.359 123.028 248.755 124.306 249.547 125.23C250.351 126.154 251.371 126.616 252.607 126.616C253.843 126.616 254.857 126.154 255.649 125.23C256.453 124.306 256.855 123.028 256.855 121.396C256.855 119.764 256.453 118.492 255.649 117.58C254.857 116.656 253.843 116.194 252.607 116.194C251.371 116.194 250.351 116.656 249.547 117.58ZM257.053 116.536C258.169 117.784 258.727 119.404 258.727 121.396C258.727 123.388 258.169 125.014 257.053 126.274C255.949 127.534 254.467 128.164 252.607 128.164C250.747 128.164 249.259 127.534 248.143 126.274C247.039 125.014 246.487 123.388 246.487 121.396C246.487 119.404 247.039 117.784 248.143 116.536C249.259 115.276 250.747 114.646 252.607 114.646C254.467 114.646 255.949 115.276 257.053 116.536ZM274.373 114.88V116.464H268.073V127.93H266.237V114.88H274.373ZM289.814 127.93V117.562L282.794 127.93H280.958V114.88H282.794V125.23L289.814 114.88H291.65V127.93H289.814ZM308.825 127.93V117.562L301.805 127.93H299.969V114.88H301.805V125.23L308.825 114.88H310.661V127.93H308.825ZM336.967 127.93V117.562L329.947 127.93H328.111V114.88H329.947V125.23L336.967 114.88H338.803V127.93H336.967ZM356.253 114.88H360.339C362.103 114.88 363.447 115.162 364.371 115.726C365.295 116.29 365.757 117.322 365.757 118.822C365.757 119.614 365.625 120.274 365.361 120.802C365.109 121.33 364.731 121.738 364.227 122.026C363.723 122.302 363.159 122.494 362.535 122.602C361.923 122.71 361.191 122.764 360.339 122.764H358.089V127.93H356.253V114.88ZM360.483 116.428H358.089V121.162H360.483C361.047 121.162 361.503 121.138 361.851 121.09C362.199 121.042 362.541 120.946 362.877 120.802C363.225 120.646 363.477 120.406 363.633 120.082C363.801 119.758 363.885 119.338 363.885 118.822C363.885 118.306 363.801 117.886 363.633 117.562C363.477 117.226 363.231 116.98 362.895 116.824C362.559 116.668 362.205 116.566 361.833 116.518C361.473 116.458 361.023 116.428 360.483 116.428ZM372.609 127.93V114.88H381.465V116.464H374.445V120.424H381.051V122.008H374.445V126.346H381.465V127.93H372.609ZM387.309 127.93L392.151 114.88H394.275L399.189 127.93H397.209L396.183 125.104H390.189L389.181 127.93H387.309ZM393.159 116.734L390.747 123.538H395.607L393.159 116.734ZM407.702 116.464V120.028H410.762C412.25 120.028 413.396 120.346 414.2 120.982C415.016 121.618 415.424 122.584 415.424 123.88C415.424 125.26 414.998 126.28 414.146 126.94C413.306 127.6 412.148 127.93 410.672 127.93H405.866V114.88H414.632V116.464H407.702ZM407.702 126.346H410.69C411.59 126.346 412.286 126.136 412.778 125.716C413.282 125.296 413.534 124.69 413.534 123.898C413.534 123.058 413.288 122.458 412.796 122.098C412.316 121.726 411.59 121.54 410.618 121.54H407.702V126.346ZM431.588 127.93V117.562L424.568 127.93H422.732V114.88H424.568V125.23L431.588 114.88H433.424V127.93H431.588ZM451.426 127.93H449.59V116.464H444.982L444.892 118.732C444.832 120.22 444.724 121.504 444.568 122.584C444.424 123.652 444.208 124.606 443.92 125.446C443.632 126.274 443.254 126.898 442.786 127.318C442.318 127.726 441.754 127.93 441.094 127.93H440.554V126.346H440.824C441.16 126.346 441.454 126.202 441.706 125.914C441.97 125.626 442.18 125.248 442.336 124.78C442.504 124.3 442.642 123.7 442.75 122.98C442.87 122.248 442.954 121.51 443.002 120.766C443.062 120.01 443.11 119.146 443.146 118.174L443.236 114.88H451.426V127.93ZM468.606 127.93V117.562L461.586 127.93H459.75V114.88H461.586V125.23L468.606 114.88H470.442V127.93H468.606ZM481.281 127.93V116.464H477.033V114.88H487.365V116.464H483.117V127.93H481.281ZM491.018 127.93L495.86 114.88H497.984L502.898 127.93H500.918L499.892 125.104H493.898L492.89 127.93H491.018ZM496.868 116.734L494.456 123.538H499.316L496.868 116.734ZM521.059 126.346V130.648H519.367V127.93H509.575V114.88H511.411V126.346H517.657V114.88H519.493V126.346H521.059ZM537.037 127.93V117.562L530.017 127.93H528.181V114.88H530.017V125.23L537.037 114.88H538.873V127.93H537.037ZM556.047 127.93V117.562L549.027 127.93H547.191V114.88H549.027V125.23L556.047 114.88H557.883V127.93H556.047Z" fill="url(#paint1_linear_222_21721)"/>
<defs>
<linearGradient id="paint0_linear_222_21721" x1="5.19678e-07" y1="57.9297" x2="558" y2="57.9297" gradientUnits="userSpaceOnUse">
<stop stop-color="white"/>
<stop offset="1" stop-color="white" stop-opacity="0.6"/>
</linearGradient>
<linearGradient id="paint1_linear_222_21721" x1="3.07627e-06" y1="124.93" x2="565" y2="124.93" gradientUnits="userSpaceOnUse">
<stop stop-color="white"/>
<stop offset="1" stop-color="white" stop-opacity="0.6"/>
</linearGradient>
</defs>
</svg>
