<svg width="60" height="60" viewBox="0 0 60 60" fill="none" xmlns="http://www.w3.org/2000/svg">
<g id="Group 10">
<path id="Vector" d="M41.2256 0H41.8182C42.2606 0.0650011 42.6411 0.211042 42.9597 0.438124C43.5743 0.877515 43.9284 1.48489 44.0221 2.26027C44.0709 2.66863 43.9487 3.11815 43.7765 3.47397C43.5844 3.86989 43.3749 4.27741 43.1478 4.69654C42.7856 5.36576 42.6254 6.29075 42.9851 6.99479C43.408 7.82292 44.3374 8.06288 45.1909 8.06098C47.0818 8.05676 49.0817 8.0557 51.1904 8.05781C51.6564 8.05845 51.9337 8.35475 51.9337 8.8125C51.9324 15.9293 51.9322 22.3768 51.9331 28.1552C51.9331 28.6281 51.5969 28.8757 51.153 28.8744C49.1237 28.8681 47.0755 28.8683 45.0085 28.875C44.4628 28.8763 43.8467 29.0492 43.4529 29.3651C43.0212 29.7108 42.8002 30.158 42.7901 30.7067C42.7804 31.2305 42.8698 31.6794 43.0585 32.0533C43.2273 32.3876 43.4099 32.7375 43.6062 33.1031C43.8227 33.5076 44.0399 34.0167 44.0335 34.4687C44.0158 35.6425 43.1864 36.6435 42.0455 36.886C40.6134 37.1899 39.2597 36.2212 39.0413 34.7758C38.997 34.4812 39.0173 34.1975 39.1021 33.9249C39.2996 33.2911 39.658 32.7131 39.9574 32.1325C40.0993 31.8573 40.1957 31.531 40.2468 31.1537C40.4494 29.6544 39.3363 28.8782 37.9555 28.8744C36.0021 28.8685 33.9814 28.8681 31.8933 28.8731C31.7363 28.8736 31.6044 28.8489 31.4976 28.7991C31.2557 28.687 31.119 28.4369 31.119 28.1754C31.119 26.0806 31.119 24.0506 31.119 22.0854C31.119 22.052 31.134 22.0432 31.1639 22.0588C31.4066 22.1875 31.6656 22.3264 31.9408 22.4754C32.4199 22.735 32.9023 22.9348 33.3881 23.075C34.8209 23.4871 36.4531 23.0224 37.549 22.0556C38.4025 21.3022 38.9248 20.3831 39.116 19.2984C39.6352 16.3581 37.354 13.6661 34.3593 13.7104C33.2374 13.7268 32.1852 14.3106 31.2133 14.8487C31.1897 14.8618 31.165 14.8701 31.1392 14.8734C31.1364 14.8738 31.1335 14.8735 31.1307 14.8727C31.128 14.8718 31.1254 14.8704 31.1233 14.8685C31.1211 14.8666 31.1194 14.8642 31.1182 14.8616C31.117 14.8589 31.1164 14.8561 31.1165 14.8532C31.1232 12.8622 31.1222 10.855 31.1133 8.8315C31.1114 8.32309 31.4109 8.05528 31.9047 8.05591C34.043 8.05802 36.0926 8.0576 38.0536 8.05465C38.3879 8.05423 38.7336 7.9869 39.0907 7.85268C40.4329 7.34934 40.5045 5.82351 39.9239 4.73389C39.6561 4.23056 39.3433 3.70316 39.1489 3.15804C39.0021 2.74608 38.9805 2.33666 39.0844 1.92977C39.3001 1.0818 39.8152 0.491518 40.6298 0.158915C40.8185 0.0816734 41.023 0.0430527 41.2256 0Z" fill="#74B65F"/>
<path id="Vector_2" d="M0 18.749V18.1678C0.0650011 17.7385 0.203023 17.3709 0.414065 17.0649C0.835306 16.4549 1.42243 16.0926 2.17543 15.9778C2.45147 15.936 2.71907 15.9546 2.97823 16.0335C3.5892 16.219 4.14762 16.5501 4.69591 16.8445C5.32903 17.1845 6.17046 17.3377 6.84094 17.068C7.74821 16.704 8.06035 15.765 8.05908 14.8508C8.05612 12.8489 8.05507 10.8362 8.05591 8.81268C8.05634 8.49654 8.17536 8.27431 8.413 8.14599C8.53751 8.07931 8.73737 8.04765 9.01257 8.05103C10.9626 8.07593 12.904 8.08142 14.8367 8.06749C14.8437 8.06747 14.8505 8.06928 14.8566 8.07275C14.8627 8.07621 14.8677 8.08121 14.8712 8.08723C14.8748 8.09325 14.8766 8.1001 14.8767 8.10708C14.8767 8.11405 14.875 8.12092 14.8715 8.127C14.2118 9.25903 13.5977 10.462 13.7275 11.7846C13.8305 12.8356 14.2179 13.7422 14.8899 14.5045C16.833 16.7097 20.2696 16.6799 22.1481 14.3848C22.7715 13.6234 23.1256 12.7423 23.2105 11.7415C23.3257 10.3923 22.6913 9.2641 22.0613 8.11054C22.0461 8.0831 22.0541 8.06939 22.0854 8.06939C24.0629 8.07783 26.0614 8.07255 28.0811 8.05356C28.5439 8.04976 28.8712 8.30681 28.8706 8.75696C28.8689 10.8032 28.8691 12.8231 28.8712 14.8166C28.8721 15.2294 28.9293 15.5966 29.0428 15.9183C29.5715 17.415 31.134 17.4625 32.3655 16.78C32.8922 16.4887 33.45 16.1652 34.0211 16.0158C34.2689 15.9508 34.5295 15.9404 34.803 15.9847C36.3535 16.2374 37.3222 17.774 36.8043 19.2846C36.47 20.2603 35.5881 20.9067 34.5656 20.97C34.344 20.9839 34.1148 20.9521 33.878 20.8744C33.3031 20.6863 32.7713 20.3673 32.2332 20.0823C31.9347 19.9241 31.6104 19.8164 31.26 19.7595C29.9723 19.5505 29.0802 20.2989 28.9105 21.5715C28.8814 21.7909 28.867 21.9887 28.8674 22.1647C28.8729 24.165 28.8738 26.1612 28.87 28.1535C28.8693 28.6112 28.5724 28.8727 28.1248 28.8721C25.9232 28.8678 23.8906 28.868 22.0271 28.8727C20.8166 28.8759 19.682 29.509 19.7251 30.8696C19.7415 31.387 19.8897 31.8952 20.1695 32.3941C20.3523 32.7204 20.5306 33.0631 20.7045 33.4223C20.978 33.9862 21.0426 34.5293 20.8983 35.0514C20.5437 36.3354 19.3382 37.1394 18.0068 36.8969C16.9501 36.7045 16.1821 35.877 15.9928 34.8355C15.943 34.5611 15.9502 34.2952 16.0143 34.0377C16.153 33.4812 16.4632 32.9393 16.7488 32.4258C17.0697 31.849 17.2597 31.2355 17.1976 30.6043C17.1331 29.9522 16.8089 29.4729 16.2252 29.1665C15.7712 28.9278 15.2748 28.8714 14.7088 28.8714C12.7706 28.871 10.818 28.8704 8.85112 28.8695C8.66456 28.8695 8.51388 28.8391 8.39907 28.7783C8.17114 28.6572 8.05718 28.4394 8.05718 28.125C8.05634 25.9639 8.05612 23.9299 8.05655 22.0229C8.05718 20.8313 7.45824 19.7753 6.15337 19.7253C5.61964 19.705 5.03906 19.888 4.54142 20.1666C4.02416 20.4559 3.50499 20.7484 2.94974 20.9067C2.23431 21.1099 1.40048 20.8326 0.859787 20.3647C0.377766 19.9469 0.0911704 19.4083 0 18.749Z" fill="#469E00"/>
<path id="Vector_3" d="M21.1104 38.3899C22.6761 37.3193 23.5441 35.4054 23.1142 33.5427C22.9173 32.6873 22.4678 31.9346 22.0613 31.1615C22.0465 31.1332 22.055 31.1191 22.0866 31.1191C24.0591 31.1195 26.0665 31.1189 28.109 31.1172C28.5426 31.1166 28.8738 31.3654 28.8731 31.8269C28.871 33.7031 28.8704 35.7335 28.8712 37.9182C28.8713 37.9229 28.8702 37.9274 28.8679 37.9315C28.8656 37.9355 28.8623 37.9389 28.8583 37.9412C28.8543 37.9435 28.8498 37.9447 28.8451 37.9447C28.8405 37.9447 28.836 37.9434 28.832 37.941C28.0513 37.4921 27.258 37.0686 26.3938 36.8679C25.2048 36.5925 23.8708 36.9128 22.8895 37.5909C21.5441 38.5191 20.759 40.012 20.8008 41.6499C20.8634 44.0982 22.7704 46.0641 25.1845 46.2711C26.5211 46.3851 27.7006 45.7614 28.8168 45.1201C28.8527 45.0994 28.8706 45.1097 28.8706 45.1511C28.8706 47.0699 28.8721 49.0807 28.875 51.1835C28.8763 51.6349 28.6091 51.9338 28.1457 51.9338C26.0863 51.9329 24.0485 51.9329 22.0322 51.9338C20.8318 51.9344 19.7118 52.5549 19.727 53.8895C19.7329 54.4066 19.8654 54.8987 20.1246 55.366C20.3133 55.7062 20.4931 56.0516 20.664 56.4024C20.8052 56.6917 20.9382 57.0368 20.9647 57.354C20.9972 57.7377 20.9339 58.1108 20.7748 58.4734C20.331 59.487 19.3249 60.0973 18.2163 59.9884C17.399 59.9074 16.6588 59.4167 16.2682 58.6931C16.0487 58.287 15.9483 57.8725 15.9668 57.4496C15.9808 57.128 16.0869 56.7709 16.2853 56.3783C16.4875 55.9782 16.6907 55.5859 16.895 55.2014C17.0537 54.9029 17.1544 54.5465 17.197 54.132C17.316 52.981 16.6392 52.2155 15.5572 52.0009C15.3381 51.9578 15.1438 51.9359 14.9741 51.9351C12.9515 51.9296 10.9491 51.9306 8.96698 51.9382C8.73061 51.9391 8.56072 51.9169 8.45731 51.8717C8.26294 51.7863 8.0749 51.5564 8.0749 51.3361C8.07279 44.8086 8.07195 38.2793 8.07237 31.7484C8.07237 31.4907 8.27687 31.2343 8.51683 31.1621C8.61728 31.1322 8.73884 31.1174 8.88151 31.1178C10.8965 31.1208 12.8827 31.1208 14.8399 31.1178C14.8475 31.1179 14.8551 31.1199 14.8617 31.1238C14.8683 31.1277 14.8738 31.1333 14.8776 31.14C14.8814 31.1466 14.8833 31.1542 14.8833 31.1619C14.8832 31.1695 14.8811 31.1771 14.8772 31.1837C14.5121 31.7965 14.2209 32.383 14.0035 32.9431C13.7674 33.5522 13.6642 34.1986 13.7287 34.8666C13.8959 36.5855 14.926 38.0233 16.4828 38.759C17.9587 39.4561 19.77 39.3067 21.1104 38.3899Z" fill="#74B65F"/>
<path id="Vector_4" d="M37.1357 46.7991C36.7356 47.7699 36.663 48.7226 36.9179 49.6571C37.1313 50.4415 37.5194 51.143 37.9284 51.8705C37.952 51.9127 37.9396 51.9338 37.891 51.9338C35.9646 51.9317 33.9823 51.9323 31.9441 51.9357C31.7385 51.9361 31.5749 51.9047 31.4534 51.8413C31.2305 51.7261 31.1191 51.5041 31.1191 51.1753C31.1191 49.1658 31.1191 47.1378 31.1191 45.0916C31.1191 44.1704 30.7601 43.2207 29.8161 42.8908C29.1836 42.6705 28.3637 42.8168 27.7971 43.1264C27.4653 43.307 27.1247 43.4855 26.7752 43.662C26.5416 43.7797 26.2839 43.8956 26.0313 43.9614C25.5155 44.0957 25.0022 44.0387 24.4915 43.7905C23.7461 43.4288 23.2846 42.841 23.1069 42.0272C22.9859 41.4707 23.0771 40.8249 23.3607 40.3235C23.8388 39.4764 24.7954 38.9021 25.7894 39.042C26.0701 39.0817 26.3913 39.1934 26.753 39.377C27.1051 39.5564 27.4408 39.733 27.7603 39.9069C28.5416 40.333 29.592 40.447 30.3334 39.8765C30.9146 39.4295 31.1185 38.6375 31.1191 37.9385C31.1216 35.8918 31.1204 33.8658 31.1153 31.8605C31.1147 31.5483 31.2812 31.2444 31.5711 31.1628C31.6784 31.1324 31.7999 31.1172 31.9358 31.1172C33.9209 31.118 35.9129 31.1185 37.9119 31.1185C37.9174 31.1185 37.9227 31.12 37.9275 31.1228C37.9322 31.1255 37.9361 31.1294 37.9388 31.1341C37.9415 31.1388 37.9429 31.1441 37.9428 31.1495C37.9428 31.1548 37.9413 31.1601 37.9385 31.1647C37.719 31.5437 37.5046 31.95 37.2952 32.3834C36.5296 33.9684 36.5984 35.4936 37.5016 36.9591C38.8224 39.1016 41.6448 39.8271 43.8487 38.5811C45.4195 37.6935 46.399 35.9688 46.2686 34.153C46.1913 33.0773 45.6259 32.096 45.1163 31.1666C45.099 31.1353 45.108 31.1197 45.1435 31.1197C47.1138 31.118 49.1343 31.1178 51.2051 31.1191C51.6236 31.1191 51.9351 31.3989 51.9344 31.8288C51.9323 33.8907 51.9327 35.9499 51.9357 38.0062C51.9361 38.3481 52.003 38.7016 52.1364 39.0667C52.3966 39.7803 53.0354 40.238 53.7889 40.2646C54.2536 40.2807 54.7001 40.1878 55.1285 39.986C55.6965 39.7182 56.2467 39.3694 56.8291 39.156C57.3635 38.9606 57.8987 38.9775 58.4347 39.2067C59.5744 39.6948 60.2297 40.8648 59.9346 42.1083C59.6953 43.1162 58.8963 43.831 57.8789 44.0083C57.3496 44.1001 56.8323 43.9456 56.3486 43.6993C55.9957 43.5199 55.638 43.3325 55.2754 43.1371C54.705 42.83 53.9091 42.6724 53.2754 42.8807C52.3073 43.1998 51.9319 44.1526 51.9325 45.115C51.9342 47.0676 51.9342 49.1145 51.9325 51.2557C51.9319 51.6919 51.5799 51.9344 51.1816 51.9344C49.2434 51.9332 47.2278 51.9327 45.1346 51.9332C45.1301 51.9331 45.1256 51.9318 45.1216 51.9295C45.1177 51.9272 45.1144 51.9239 45.1122 51.92C45.1099 51.9161 45.1088 51.9117 45.1088 51.9072C45.1089 51.9027 45.1101 51.8983 45.1125 51.8945C45.7557 50.7764 46.3914 49.5621 46.2686 48.2243C46.0672 46.0381 44.4743 44.3185 42.328 43.9317C40.1456 43.5379 37.967 44.7807 37.1357 46.7991Z" fill="#469E00"/>
</g>
</svg>
