<svg width="119" height="98" viewBox="0 0 119 98" fill="none" xmlns="http://www.w3.org/2000/svg">
<g id="Group 8">
<mask id="mask0_222_21764" style="mask-type:alpha" maskUnits="userSpaceOnUse" x="-20" y="-18" width="139" height="139">
<circle id="Ellipse 4" cx="49.5" cy="51.5" r="69.5" fill="url(#paint0_linear_222_21764)"/>
</mask>
<g mask="url(#mask0_222_21764)">
<circle id="Ellipse 5" cx="49.5" cy="51.5" r="69.5" fill="#74B65F"/>
<g id="Group 12">
<path id="Vector" d="M52.4784 20.2029C52.8339 19.4702 53.2124 18.7476 53.6138 18.0349C53.6225 18.0196 53.6367 18.0081 53.6535 18.003C53.6702 17.9979 53.6883 17.9994 53.7038 18.0072L62.5703 22.4721C62.589 22.4814 62.6036 22.4974 62.6113 22.5169C62.619 22.5364 62.6194 22.5581 62.6122 22.578C62.41 23.1358 62.1437 23.6644 61.924 24.2166C61.3025 25.7752 60.7684 27.3591 60.3217 28.9683C60.3165 28.9883 60.3038 28.9954 60.2838 28.9896L50.15 26.0829C50.1384 26.0792 50.1342 26.0715 50.1373 26.0599C50.3896 25.234 50.6612 24.44 50.9519 23.6778C50.9667 23.6399 50.9548 23.6278 50.9164 23.6414C49.8236 24.0349 48.6614 23.7418 47.9361 22.8395C47.0867 21.7823 47.1136 20.2195 48.1218 19.2548C49.4871 17.9488 51.7389 18.4892 52.442 20.2021C52.4435 20.2057 52.4459 20.2088 52.4491 20.211C52.4523 20.2132 52.4561 20.2145 52.46 20.2146C52.4638 20.2146 52.4676 20.2136 52.4709 20.2115C52.4742 20.2094 52.4768 20.2065 52.4784 20.2029Z" fill="white"/>
<path id="Vector_2" d="M82.7922 31.5037C82.1008 30.1842 81.5074 28.7328 81.3115 27.2735C81.2551 26.8521 81.2788 26.4568 81.3826 26.0875C81.5122 25.6285 81.8772 25.3156 82.2944 25.1228C83.2899 24.663 84.2507 25.3275 84.9088 26.0259C85.4424 26.5922 85.9528 27.2637 86.4401 28.0407C89.0779 32.2461 91.5151 36.5532 93.7516 40.962C94.9155 43.2564 96.0271 45.6789 96.9255 48.1408C97.3374 49.2681 97.6537 50.3813 97.8744 51.4806C98.1014 52.611 98.0206 53.7606 97.6318 54.9294C97.3158 55.8807 96.9189 56.8009 96.4412 57.69C95.6589 59.148 94.7279 60.6318 93.6481 62.1414C91.8767 64.6176 90.4443 66.404 88.1056 69.3535C87.7553 69.7954 87.3966 70.2747 87.0295 70.7915C86.636 71.3456 86.3908 71.9555 86.2939 72.6213C86.1638 73.5126 86.1245 74.4878 86.1762 75.5471C86.256 77.1786 86.4472 78.7509 86.6921 80.3699C86.6974 80.4041 86.6826 80.4212 86.6479 80.4212H72.4276C72.3997 80.4212 72.3844 80.4072 72.3818 80.3793C72.2069 78.521 72.1374 76.6651 72.1732 74.8115C72.2053 73.1786 72.3618 71.7016 72.6425 70.3806C73.0858 68.2955 74.1816 66.4096 75.4521 64.7227C77.4147 62.1161 79.7076 59.7767 81.6765 57.182C82.395 56.236 82.9578 55.3429 83.365 54.5027C83.6225 53.9718 83.8359 53.3966 83.9528 52.8143C84.0329 52.4156 84.1006 52.0026 84.1559 51.5754C84.2854 50.5715 84.4198 49.3897 84.5588 48.0302C84.6062 47.5699 84.6929 47.1082 84.8188 46.6452C85.1166 45.5469 85.8348 44.8445 86.9339 44.5538C88.6413 44.1011 89.6858 45.7769 90.0255 47.1587C90.4119 48.7318 90.3732 50.3452 90.1156 51.9562C89.828 53.754 89.3302 55.5633 88.6223 57.3842C88.134 58.6389 87.5746 59.7796 86.9441 60.8062C86.4959 61.5362 85.9789 62.1954 85.3932 62.7838C84.8693 63.31 84.2902 64.4801 85.2186 64.9787C85.8372 65.3105 86.542 64.9708 86.9908 64.5244C87.2899 64.2278 87.5628 63.9149 87.8093 63.5857C88.8069 62.2536 89.6855 60.7938 90.4451 59.2062C91.5007 57.0002 92.1714 54.6763 92.4575 52.2344C92.6898 50.252 92.6155 48.1322 92.0387 46.2225C91.8048 45.4492 91.5083 44.7916 91.1491 44.2496C90.3147 42.9925 88.9067 42.0776 87.3842 42.0507C86.2918 42.0307 85.405 42.3839 84.724 43.1103C84.1045 43.77 83.5135 44.6968 83.2125 45.5864C83.2025 45.6154 83.1896 45.6167 83.1738 45.5904C82.0076 43.6112 80.8706 41.5309 80.0853 39.4561C79.8316 38.7868 79.6017 38.0568 79.5788 37.3354C79.5651 36.8819 79.7521 36.499 80.1398 36.1866C80.4637 35.9259 80.8077 35.9003 81.1717 36.11C81.2133 36.1337 81.2243 36.1239 81.2048 36.0807C80.6217 34.7771 80.0829 33.2988 80.1098 31.9351C80.1192 31.4191 80.3302 30.6196 80.9449 30.5927C81.5707 30.5658 82.2825 31.096 82.7613 31.5274C82.8166 31.5774 82.8269 31.5695 82.7922 31.5037Z" fill="white"/>
<path id="Vector_3" d="M33.1141 32.5471C33.5613 32.1528 34.1989 31.6503 34.8096 31.6124C35.5492 31.5666 35.7617 32.4752 35.7593 33.0622C35.753 34.4094 35.2639 35.826 34.6832 37.106C34.6642 37.1481 34.6748 37.1576 34.7148 37.1344C35.0767 36.9248 35.4175 36.9419 35.7372 37.1858C36.1644 37.5124 36.3595 37.9369 36.3227 38.4594C36.2963 38.8376 36.2263 39.2213 36.1125 39.6106C35.935 40.2184 35.7304 40.7929 35.4986 41.3338C34.7512 43.0773 33.8468 44.8347 32.7854 46.6062C32.7685 46.6346 32.7543 46.633 32.7427 46.6014C32.4836 45.8835 32.0596 45.1626 31.4707 44.4389C31.1246 44.0138 30.7511 43.7002 30.3503 43.4979C29.0561 42.8453 27.5233 43.057 26.3066 43.8353C24.8749 44.7502 24.1322 46.2988 23.7656 47.9051C23.4374 49.341 23.3363 50.8564 23.4622 52.4513C23.6555 54.9048 24.2573 57.2746 25.2676 59.5606C25.8444 60.8664 26.5662 62.173 27.4332 63.4803C27.976 64.2997 28.5765 65.1546 29.3129 65.7716C29.7735 66.1572 30.5225 66.3318 31.0179 65.932C31.6919 65.3876 31.2352 64.4427 30.7446 63.9109C30.1915 63.3113 29.6827 62.7511 29.2331 62.0503C27.8267 59.8561 26.8367 57.2567 26.2157 54.6747C25.7108 52.5762 25.4572 50.4721 25.9068 48.3949C26.0727 47.6275 26.3584 46.9846 26.764 46.4663C27.2665 45.824 28.0306 45.4234 28.8357 45.5727C29.9837 45.7868 30.8457 46.5453 31.1499 47.691C31.2863 48.2072 31.3795 48.7052 31.4296 49.185C31.5897 50.7336 31.7714 52.1569 31.9747 53.4547C32.0827 54.1437 32.3026 54.8248 32.6345 55.4979C33.0964 56.4355 33.7185 57.4002 34.5007 58.3921C36.1575 60.4922 37.9835 62.4508 39.694 64.5075C40.679 65.6921 41.5134 66.877 42.1971 68.0621C42.7791 69.0714 43.1929 70.1011 43.4383 71.1514C43.7064 72.2992 43.8747 73.5502 43.9432 74.9044C44.0301 76.6216 44.0125 78.3906 43.8903 80.2115C43.8887 80.2368 43.8752 80.2494 43.85 80.2494H29.7135C29.6803 80.2494 29.6658 80.2328 29.67 80.1997C29.8778 78.527 30.0319 76.8228 29.9837 75.1446C29.9537 74.1048 29.8352 72.941 29.2307 72.0561C28.9787 71.6871 28.7156 71.3158 28.4351 70.961C26.2647 68.217 24.0303 65.5267 22.0266 62.6887C20.8146 60.9718 19.6318 59.0763 18.8196 57.2046C18.4856 56.4334 18.2457 55.6723 18.0998 54.9212C17.9692 54.2464 17.9668 53.5461 18.0927 52.8203C18.3013 51.6157 18.6399 50.3741 19.1087 49.0958C19.893 46.9551 20.8833 44.678 22.0795 42.2645C24.2439 37.8974 26.6637 33.5413 29.339 29.1963C30.0414 28.0546 31.5631 25.7309 33.1283 26.0256C33.4038 26.0777 33.6719 26.2005 33.9326 26.3938C34.5157 26.8252 34.605 27.5631 34.5299 28.2316C34.364 29.7075 33.758 31.1794 33.0825 32.5226C33.0503 32.5863 33.0609 32.5945 33.1141 32.5471Z" fill="white"/>
<path id="Vector_4" d="M48.6773 32.4173C48.8348 31.6162 48.9973 30.8759 49.1648 30.1964C49.189 30.0973 49.2193 29.9975 49.2556 29.8969C49.2699 29.8585 49.297 29.8435 49.337 29.8519L59.6099 31.982C59.6752 31.9957 59.7045 32.0357 59.6976 32.1021C59.6273 32.7547 59.5033 33.3979 59.4266 34.0631C59.2291 35.7703 59.1227 37.4993 59.1074 39.2501C59.1074 39.2544 59.1066 39.2585 59.1049 39.2624C59.1033 39.2663 59.1009 39.2698 59.0979 39.2728C59.0949 39.2757 59.0913 39.278 59.0874 39.2796C59.0834 39.2811 59.0792 39.2818 59.075 39.2817L47.9354 39.0905C47.9027 39.09 47.8869 39.0734 47.888 39.0408C47.9206 38.1385 47.9807 37.2546 48.0681 36.3892C48.0685 36.3848 48.0676 36.3804 48.0656 36.3765C48.0635 36.3726 48.0604 36.3694 48.0566 36.3672C48.0527 36.365 48.0484 36.364 48.044 36.3643C48.0396 36.3645 48.0353 36.366 48.0318 36.3686C46.0905 37.7837 43.4397 36.2659 43.5669 33.9035C43.6483 32.4031 44.9464 31.3009 46.4018 31.3246C47.3209 31.3394 48.0618 31.7078 48.6243 32.43C48.6512 32.4653 48.6689 32.4611 48.6773 32.4173Z" fill="white"/>
<path id="Vector_5" d="M48.2694 46.0605C48.134 45.0997 48.0308 44.1698 47.9597 43.2706C47.9584 43.2548 47.9633 43.2391 47.9733 43.227C47.9834 43.2148 47.9978 43.2072 48.0134 43.2058L59.2155 42.1155C59.2239 42.1147 59.2325 42.1157 59.2405 42.1183C59.2486 42.1209 59.256 42.1251 59.2624 42.1306C59.2688 42.1362 59.2739 42.143 59.2775 42.1505C59.2811 42.1581 59.2831 42.1664 59.2834 42.1747C59.2919 42.4666 59.3156 42.7476 59.3545 43.0178C59.6477 45.0523 60.0245 46.9138 60.7443 48.7523C60.757 48.785 60.7472 48.8071 60.7151 48.8187L50.0274 52.7479C50.0223 52.7498 50.0169 52.7507 50.0115 52.7505C50.006 52.7503 50.0007 52.749 49.9958 52.7466C49.9908 52.7443 49.9864 52.7409 49.9827 52.7368C49.9791 52.7327 49.9762 52.7278 49.9745 52.7226C49.6084 51.656 49.2744 50.5804 48.9726 49.4958C48.9647 49.4663 48.9536 49.4653 48.9394 49.4927C48.2252 50.8864 46.5075 51.4711 45.1122 50.7244C43.558 49.8925 43.1211 47.8761 44.2273 46.4903C45.2275 45.238 46.9729 45.1029 48.2291 46.0842C48.2618 46.11 48.2752 46.1021 48.2694 46.0605Z" fill="white"/>
<path id="Vector_6" d="M52.4218 57.9068L51.7605 56.709C51.7468 56.6842 51.7526 56.665 51.7779 56.6513L61.7403 51.2849C61.7661 51.2707 61.7856 51.2765 61.7987 51.3023C62.1011 51.8886 62.4005 52.468 62.6971 53.0405C63.7864 55.1443 64.7334 57.2681 65.5383 59.4119C65.5438 59.4269 65.5432 59.4435 65.5367 59.458C65.5302 59.4724 65.5183 59.4837 65.5035 59.4893L55.2883 63.4343C55.2799 63.4377 55.2707 63.4381 55.2619 63.4356C55.2532 63.433 55.2455 63.4275 55.2401 63.4201C55.1906 63.3521 55.1477 63.2787 55.1113 63.1996C54.9728 62.8989 54.8401 62.5921 54.7131 62.2792C54.6789 62.1954 54.6504 62.1973 54.6278 62.2847C54.6162 62.3274 54.5946 62.3656 54.563 62.3993C54.4856 62.482 54.4073 62.5652 54.3283 62.6489C53.4813 63.5441 52.1872 63.7946 51.0581 63.2913C49.4708 62.5826 48.9588 60.6081 49.9433 59.2096C50.5443 58.3547 51.3607 57.937 52.3926 57.9565C52.4305 57.9571 52.4403 57.9405 52.4218 57.9068Z" fill="white"/>
<path id="Vector_7" d="M56.6307 67.2463L56.3138 66.246C56.3131 66.2436 56.3128 66.2411 56.3131 66.2386C56.3133 66.2361 56.314 66.2337 56.3152 66.2315C56.3164 66.2293 56.318 66.2274 56.3199 66.2258C56.3218 66.2242 56.3241 66.223 56.3265 66.2223L66.6831 63.2934C66.7094 63.286 66.726 63.2958 66.7329 63.3226C67.4482 66.1069 67.9001 68.9137 68.0887 71.7427C68.1045 71.9761 68.1079 72.2047 68.099 72.4285C68.0983 72.4482 68.0904 72.4669 68.0769 72.4812C68.0634 72.4954 68.0451 72.5043 68.0255 72.506L58.09 73.3593C58.0668 73.3614 58.0515 73.3514 58.0441 73.3293C58.021 73.2629 58.0025 73.1949 57.9888 73.1254C57.9019 72.6745 57.8242 72.2157 57.7558 71.7491C57.75 71.709 57.7334 71.704 57.706 71.734C56.6551 72.8947 55.0315 73.0472 53.8037 72.0651C52.673 71.1604 52.436 69.4759 53.2498 68.3421C53.8777 67.4672 54.7413 67.0572 55.8405 67.112C56.0894 67.1246 56.3541 67.1997 56.5872 67.2874C56.6304 67.3042 56.6449 67.2905 56.6307 67.2463Z" fill="white"/>
<path id="Vector_8" d="M58.375 78.1135C58.4103 78.1404 58.4269 78.1317 58.4247 78.0875L58.3489 76.3895C58.3478 76.3611 58.3613 76.3471 58.3892 76.3477L68.079 76.4559C68.0816 76.4559 68.0842 76.4564 68.0866 76.4575C68.089 76.4585 68.0912 76.4601 68.093 76.462C68.0948 76.4639 68.0961 76.4662 68.097 76.4687C68.0979 76.4712 68.0982 76.4738 68.098 76.4765C68.0074 77.7738 67.8846 79.0772 67.7298 80.3867C67.7267 80.4122 67.7144 80.4356 67.6952 80.4527C67.6759 80.4697 67.6512 80.4791 67.6255 80.4791L53.9844 80.4799C53.9616 80.4799 53.9391 80.4751 53.9184 80.4659C53.8976 80.4566 53.879 80.4431 53.8638 80.4262C53.8486 80.4093 53.8371 80.3893 53.8301 80.3677C53.8231 80.346 53.8208 80.3232 53.8232 80.3005C53.8856 79.7088 54.0997 79.0214 54.49 78.5568C55.4563 77.4056 57.1582 77.1947 58.375 78.1135Z" fill="white"/>
</g>
</g>
</g>
<defs>
<linearGradient id="paint0_linear_222_21764" x1="49.5" y1="-18" x2="49.5" y2="121" gradientUnits="userSpaceOnUse">
<stop stop-color="#017E82"/>
<stop offset="0.447917" stop-color="#42AB84"/>
<stop offset="1" stop-color="#74B65F"/>
</linearGradient>
</defs>
</svg>
