<svg width="43" height="52" viewBox="0 0 43 52" fill="none" xmlns="http://www.w3.org/2000/svg">
<g id="Group 11">
<g id="Vector">
<path d="M37.7185 5.12011C37.7185 6.47805 37.1286 7.78038 36.0785 8.74058C35.0283 9.70079 33.6041 10.2402 32.119 10.2402C30.6339 10.2402 29.2097 9.70079 28.1596 8.74058C27.1095 7.78038 26.5195 6.47805 26.5195 5.12011C26.5195 3.76218 27.1095 2.45985 28.1596 1.49965C29.2097 0.539439 30.6339 0 32.119 0C33.6041 0 35.0283 0.539439 36.0785 1.49965C37.1286 2.45985 37.7185 3.76218 37.7185 5.12011Z" fill="#74B65F"/>
<path d="M37.7185 5.12011C37.7185 6.47805 37.1286 7.78038 36.0785 8.74058C35.0283 9.70079 33.6041 10.2402 32.119 10.2402C30.6339 10.2402 29.2097 9.70079 28.1596 8.74058C27.1095 7.78038 26.5195 6.47805 26.5195 5.12011C26.5195 3.76218 27.1095 2.45985 28.1596 1.49965C29.2097 0.539439 30.6339 0 32.119 0C33.6041 0 35.0283 0.539439 36.0785 1.49965C37.1286 2.45985 37.7185 3.76218 37.7185 5.12011Z" stroke="#232323"/>
</g>
<g id="Vector_2">
<path d="M19.4635 8.05906C19.4635 8.73138 19.3187 9.39711 19.0373 10.0182C18.7559 10.6394 18.3435 11.2038 17.8236 11.6792C17.3037 12.1546 16.6865 12.5317 16.0072 12.789C15.3279 13.0462 14.5998 13.1787 13.8646 13.1787C12.3796 13.1787 10.9555 12.6393 9.90551 11.6792C8.85551 10.7191 8.26562 9.41686 8.26562 8.05906C8.26562 6.70126 8.85551 5.39906 9.90551 4.43895C10.9555 3.47884 12.3796 2.93945 13.8646 2.93945C14.5998 2.93945 15.3279 3.07188 16.0072 3.32916C16.6865 3.58644 17.3037 3.96355 17.8236 4.43895C18.3435 4.91435 18.7559 5.47873 19.0373 6.09987C19.3187 6.72101 19.4635 7.38674 19.4635 8.05906Z" fill="#74B65F"/>
<path d="M19.4635 8.05906C19.4635 8.73138 19.3187 9.39711 19.0373 10.0182C18.7559 10.6394 18.3435 11.2038 17.8236 11.6792C17.3037 12.1546 16.6865 12.5317 16.0072 12.789C15.3279 13.0462 14.5998 13.1787 13.8646 13.1787C12.3796 13.1787 10.9555 12.6393 9.90551 11.6792C8.85551 10.7191 8.26562 9.41686 8.26562 8.05906C8.26562 6.70126 8.85551 5.39906 9.90551 4.43895C10.9555 3.47884 12.3796 2.93945 13.8646 2.93945C14.5998 2.93945 15.3279 3.07188 16.0072 3.32916C16.6865 3.58644 17.3037 3.96355 17.8236 4.43895C18.3435 4.91435 18.7559 5.47873 19.0373 6.09987C19.3187 6.72101 19.4635 7.38674 19.4635 8.05906Z" stroke="#232323"/>
</g>
<g id="Vector_3">
<path d="M38.5859 15.7685C38.586 15.7666 38.5857 15.7647 38.5849 15.763C38.5841 15.7612 38.583 15.7596 38.5815 15.7584C38.5805 15.7575 38.5794 15.7568 38.5781 15.7563C38.5775 15.756 38.5769 15.7558 38.5763 15.7556C38.5744 15.7551 38.5724 15.755 38.5704 15.7553L38.0549 15.8344C38.0405 15.8364 38.0321 15.8442 38.0299 15.8577C37.8597 17.0018 36.5969 17.7063 35.455 18.1027C34.1583 18.5523 32.6843 18.8007 31.2851 18.9193C29.8926 19.0373 28.5091 19.0753 27.1347 19.0334C27.1092 19.0327 27.0961 19.0207 27.0954 18.9974C27.0848 18.7374 27.0737 18.4758 27.0089 18.2198C26.908 17.8187 26.7114 17.4602 26.4191 17.1442C26.0909 16.79 25.7562 16.4308 25.4151 16.0665C25.3973 16.0476 25.3874 16.0234 25.3874 15.9986V12.7216C25.3874 12.7131 25.3839 12.7049 25.3775 12.6988C25.3711 12.6927 25.3623 12.689 25.353 12.6886L22.1411 12.571C22.1197 12.57 22.102 12.5622 22.0879 12.5477C21.7827 12.2297 21.4604 11.9055 21.1211 11.575C20.5867 11.0539 20.0054 10.7317 19.3772 10.6083C19.3731 10.6075 19.3693 10.6059 19.366 10.6036C19.3627 10.6013 19.36 10.5983 19.3582 10.5949C19.3564 10.5915 19.3555 10.5878 19.3555 10.5841C19.3555 10.5804 19.3565 10.5767 19.3583 10.5734C19.6414 10.0638 19.8349 9.51328 19.9387 8.92191C19.94 8.91421 19.9444 8.9072 19.9509 8.90218C19.9574 8.89715 19.9657 8.89444 19.9742 8.89453C22.4052 8.91616 24.8286 9.00183 27.2445 9.15153C27.3755 9.15938 27.5053 9.15964 27.635 9.15991C27.6979 9.16004 27.7608 9.16017 27.8238 9.16116C27.8412 9.1615 27.8563 9.16724 27.8692 9.17839C30.3017 11.2602 33.9466 11.2607 36.3652 9.17839C36.377 9.16825 36.3911 9.16268 36.4073 9.16167C37.3841 9.11334 38.2871 9.32303 39.1164 9.79072C40.1387 10.3671 40.9513 11.2095 41.5423 12.1635C42.8799 14.3254 42.9858 16.9475 41.4137 19.0405C39.775 21.2216 36.8979 22.2486 34.1439 22.7301C31.7575 23.1473 29.2468 23.2467 26.8016 23.1711C25.0077 23.1154 24.1834 21.1162 25.5194 20.0046C25.7755 19.7914 26.072 19.6494 26.4091 19.5788C26.592 19.5406 26.9261 19.5274 27.4113 19.5393C28.3608 19.5626 29.4419 19.5401 30.6549 19.4718C33.002 19.3401 38.3864 18.6775 38.5859 15.7685Z" fill="#74B65F"/>
<path d="M38.5859 15.7685C38.586 15.7666 38.5857 15.7647 38.5849 15.763C38.5841 15.7612 38.583 15.7596 38.5815 15.7584C38.5805 15.7575 38.5794 15.7568 38.5781 15.7563C38.5775 15.756 38.5769 15.7558 38.5763 15.7556C38.5744 15.7551 38.5724 15.755 38.5704 15.7553L38.0549 15.8344C38.0405 15.8364 38.0321 15.8442 38.0299 15.8577C37.8597 17.0018 36.5969 17.7063 35.455 18.1027C34.1583 18.5523 32.6843 18.8007 31.2851 18.9193C29.8926 19.0373 28.5091 19.0753 27.1347 19.0334C27.1092 19.0327 27.0961 19.0207 27.0954 18.9974C27.0848 18.7374 27.0737 18.4758 27.0089 18.2198C26.908 17.8187 26.7114 17.4602 26.4191 17.1442C26.0909 16.79 25.7562 16.4308 25.4151 16.0665C25.3973 16.0476 25.3874 16.0234 25.3874 15.9986V12.7216C25.3874 12.7131 25.3839 12.7049 25.3775 12.6988C25.3711 12.6927 25.3623 12.689 25.353 12.6886L22.1411 12.571C22.1197 12.57 22.102 12.5622 22.0879 12.5477C21.7827 12.2297 21.4604 11.9055 21.1211 11.575C20.5867 11.0539 20.0054 10.7317 19.3772 10.6083C19.3731 10.6075 19.3693 10.6059 19.366 10.6036C19.3627 10.6013 19.36 10.5983 19.3582 10.5949C19.3564 10.5915 19.3555 10.5878 19.3555 10.5841C19.3555 10.5804 19.3565 10.5767 19.3583 10.5734C19.6414 10.0638 19.8349 9.51328 19.9387 8.92191C19.94 8.91421 19.9444 8.9072 19.9509 8.90218C19.9574 8.89715 19.9657 8.89444 19.9742 8.89453C22.4052 8.91616 24.8286 9.00183 27.2445 9.15153C27.3755 9.15938 27.5053 9.15964 27.635 9.15991C27.6979 9.16004 27.7608 9.16017 27.8238 9.16116C27.8412 9.1615 27.8563 9.16724 27.8692 9.17839C30.3017 11.2602 33.9466 11.2607 36.3652 9.17839C36.377 9.16825 36.3911 9.16268 36.4073 9.16167C37.3841 9.11334 38.2871 9.32303 39.1164 9.79072C40.1387 10.3671 40.9513 11.2095 41.5423 12.1635C42.8799 14.3254 42.9858 16.9475 41.4137 19.0405C39.775 21.2216 36.8979 22.2486 34.1439 22.7301C31.7575 23.1473 29.2468 23.2467 26.8016 23.1711C25.0077 23.1154 24.1834 21.1162 25.5194 20.0046C25.7755 19.7914 26.072 19.6494 26.4091 19.5788C26.592 19.5406 26.9261 19.5274 27.4113 19.5393C28.3608 19.5626 29.4419 19.5401 30.6549 19.4718C33.002 19.3401 38.3864 18.6775 38.5859 15.7685Z" stroke="#232323"/>
</g>
<g id="Vector_4">
<path d="M8.35213 10.6082C7.68283 10.7471 7.10558 11.0914 6.63812 11.5467C6.32501 11.8516 6.01743 12.1604 5.71541 12.4731C5.71178 12.4769 5.70712 12.4799 5.70189 12.4816C5.69666 12.4833 5.69104 12.4837 5.68557 12.4828C5.6801 12.482 5.67496 12.4798 5.67067 12.4766C5.66638 12.4734 5.66307 12.4692 5.66106 12.4645C5.37752 11.8168 5.44296 11.219 5.85736 10.6711C6.09544 10.3557 6.40874 10.1371 6.79727 10.0154C7.13811 9.90863 7.52701 9.81145 7.96397 9.7239C7.98504 9.7195 7.99872 9.72677 8.00501 9.7457C8.10112 10.0351 8.22348 10.309 8.37209 10.5676C8.38466 10.5893 8.37801 10.6028 8.35213 10.6082Z" fill="#74B65F"/>
<path d="M8.35213 10.6082C7.68283 10.7471 7.10558 11.0914 6.63812 11.5467C6.32501 11.8516 6.01743 12.1604 5.71541 12.4731C5.71178 12.4769 5.70712 12.4799 5.70189 12.4816C5.69666 12.4833 5.69104 12.4837 5.68557 12.4828C5.6801 12.482 5.67496 12.4798 5.67067 12.4766C5.66638 12.4734 5.66307 12.4692 5.66106 12.4645C5.37752 11.8168 5.44296 11.219 5.85736 10.6711C6.09544 10.3557 6.40874 10.1371 6.79727 10.0154C7.13811 9.90863 7.52701 9.81145 7.96397 9.7239C7.98504 9.7195 7.99872 9.72677 8.00501 9.7457C8.10112 10.0351 8.22348 10.309 8.37209 10.5676C8.38466 10.5893 8.37801 10.6028 8.35213 10.6082Z" stroke="#232323"/>
</g>
<path id="Vector_5" d="M20.6191 17.592C20.6172 17.5901 20.6147 17.5887 20.6119 17.5881C20.6092 17.5875 20.6063 17.5877 20.6038 17.5886C20.6012 17.5894 20.599 17.591 20.5974 17.5931C20.5959 17.5951 20.5952 17.5976 20.5952 17.6001C20.5952 28.3259 20.593 38.727 20.5886 48.8033C20.5882 49.6093 20.2881 50.2836 19.6883 50.8263C18.4898 51.9116 16.6028 51.9283 15.3849 50.8572C14.7559 50.3041 14.4414 49.6069 14.4414 48.7658C14.4414 41.9579 14.4414 35.1446 14.4414 28.3259C14.4414 28.307 14.4311 28.2975 14.4104 28.2975L13.3205 28.297C13.2998 28.297 13.2895 28.3065 13.2895 28.3254C13.2891 32.6384 13.2869 36.951 13.2828 41.2633C13.2821 42.0628 12.9894 42.7346 12.4047 43.2787C11.1974 44.4015 9.18562 44.3913 7.99709 43.2518C7.4202 42.6987 7.13194 42.0316 7.13231 41.2506C7.136 33.5273 7.13637 25.65 7.13342 17.6188C7.13342 17.586 7.12178 17.5822 7.09849 17.6072L5.36338 19.4609C5.34792 19.4773 5.33894 19.498 5.33788 19.5197L5.0413 24.4502C5.04084 24.4569 5.04326 24.4634 5.04803 24.4684C5.0528 24.4734 5.05954 24.4766 5.0668 24.4771C5.41124 24.5031 5.68841 24.63 5.89833 24.8578C6.54026 25.5542 5.92272 26.567 4.95094 26.5244C4.92729 26.5234 4.91491 26.5335 4.9138 26.5548C4.88941 27.0147 4.86188 27.4608 4.8312 27.893C4.77688 28.6635 4.17208 29.3042 3.35719 29.5115C3.33908 29.5163 3.32965 29.5271 3.32891 29.544L2.28341 50.948C2.28267 50.9612 2.28932 50.9679 2.30337 50.9683L2.56391 50.9794C2.58387 50.9804 2.59348 50.9901 2.59274 51.0083L2.55227 51.8067C2.55153 51.8242 2.54155 51.8327 2.52233 51.832L0.886449 51.7636C0.884847 51.7635 0.883275 51.7631 0.881822 51.7625C0.880369 51.7619 0.879065 51.761 0.877983 51.7599C0.876902 51.7589 0.876065 51.7576 0.87552 51.7562C0.874975 51.7548 0.874733 51.7534 0.874807 51.7519L0.913612 50.9449C0.914352 50.924 0.926178 50.914 0.949091 50.915L1.19245 50.9226C1.21499 50.9233 1.22682 50.9135 1.22793 50.8932L2.27232 29.5151C2.27306 29.5005 2.26586 29.4912 2.2507 29.4872C1.56941 29.2976 1.0655 28.7755 0.908069 28.1536C0.858916 27.9609 0.847829 27.6997 0.874807 27.3699C0.899938 27.0604 0.92008 26.7348 0.935232 26.3931C0.936341 26.3742 0.926547 26.3625 0.905852 26.3582C0.474567 26.2703 0.190925 26.0354 0.0549242 25.6536C-0.171805 25.0179 0.332653 24.4147 1.03113 24.3412C1.05146 24.3392 1.06218 24.3289 1.06329 24.3103C1.176 22.4074 1.28891 20.524 1.40199 18.66C1.42639 18.2619 1.59398 17.8956 1.90479 17.561C3.14875 16.2225 4.39992 14.8907 5.65829 13.5657C6.15869 13.0389 6.66111 12.5276 7.16557 12.0319C7.59685 11.6081 8.13125 11.2959 8.76819 11.2406C8.77712 11.2398 8.78616 11.2412 8.79442 11.2447C8.80268 11.2482 8.80988 11.2536 8.81531 11.2604C10.0216 12.8049 11.8892 13.7 13.958 13.6772C15.9265 13.6554 17.7852 12.7481 18.9084 11.2634C18.9224 11.2448 18.9418 11.2366 18.9666 11.2386C19.5924 11.2923 20.1168 11.6005 20.5576 12.0248C20.841 12.2978 21.0823 12.5377 21.2815 12.7446C22.5236 14.0321 23.9219 15.5115 25.4763 17.1829C25.7657 17.4941 25.9442 17.6945 26.0118 17.7841C26.2845 18.148 26.3527 18.6118 26.3477 19.0564C26.3477 19.0624 26.3455 19.0683 26.3412 19.0731C26.337 19.0779 26.3311 19.0813 26.3245 19.0827C24.5616 19.4614 23.719 21.3044 24.7712 22.6746C25.2061 23.2413 25.8135 23.5701 26.5933 23.661C26.6173 23.6637 26.6301 23.6762 26.6316 23.6985L26.6687 24.321C26.669 24.3263 26.6714 24.3314 26.6755 24.3352C26.6795 24.339 26.685 24.3414 26.6909 24.3417C26.9721 24.3644 27.2083 24.4636 27.3993 24.6393C27.4252 24.6629 27.4372 24.658 27.4354 24.6246L27.3799 23.7091C27.3798 23.7061 27.3803 23.7032 27.3814 23.7004C27.3826 23.6976 27.3843 23.695 27.3865 23.6929C27.3888 23.6907 27.3915 23.689 27.3944 23.6879C27.3974 23.6868 27.4006 23.6862 27.4038 23.6863C30.2775 23.7279 33.1696 23.5667 35.9258 22.852C36.9584 22.584 37.9216 22.2285 38.8156 21.7855C38.8371 21.7747 38.8478 21.7806 38.8478 21.8032C38.8478 30.759 38.8474 39.7638 38.8467 48.8175C38.8463 49.3562 38.6661 49.8734 38.3062 50.3691C37.3821 51.6409 35.4241 51.977 34.0582 51.1142C33.1498 50.5401 32.6954 49.7319 32.695 48.6898C32.6943 42.1786 32.6943 35.3661 32.695 28.2524C32.695 28.2485 32.6933 28.2448 32.6902 28.242C32.6871 28.2393 32.6828 28.2377 32.6784 28.2377L31.5814 28.2382C31.5547 28.2382 31.5414 28.2504 31.5414 28.2747C31.5422 33.8049 31.542 39.2991 31.5409 44.7573C31.5409 46.0387 30.6639 47.1225 29.3296 47.4889C28.5934 47.691 27.8509 47.6338 27.1022 47.3171C27.0841 47.3097 27.0747 47.2968 27.0739 47.2786L26.2274 29.9677C26.2271 29.9587 26.2294 29.9497 26.2341 29.9417C26.2387 29.9336 26.2456 29.9269 26.2541 29.9221C26.9828 29.5136 27.4235 28.9359 27.5762 28.189C27.6187 27.9802 27.6287 27.7198 27.6061 27.4079C27.5706 26.9115 27.542 26.4416 27.5202 25.9983C27.5187 25.9712 27.5087 25.9682 27.4902 25.9891C27.3162 26.1855 27.0941 26.3085 26.8239 26.3582C26.8018 26.3622 26.7914 26.3744 26.7929 26.3946C26.8176 26.8002 26.843 27.2145 26.8688 27.6375C26.9209 28.4932 26.3583 29.2135 25.4757 29.4923C25.4704 29.4938 25.4657 29.497 25.4625 29.5013C25.4593 29.5056 25.4577 29.5108 25.458 29.5161L26.5024 50.8932C26.5028 50.9015 26.5068 50.9092 26.5134 50.9148C26.5201 50.9204 26.5289 50.9234 26.5379 50.9231L26.7851 50.915C26.7933 50.9148 26.8012 50.9174 26.8072 50.9224C26.8132 50.9275 26.8168 50.9345 26.8173 50.9419L26.8561 51.7428C26.8564 51.7492 26.8539 51.7554 26.8491 51.7601C26.8443 51.7649 26.8377 51.7677 26.8306 51.7681L25.2091 51.8335C25.1888 51.8342 25.1782 51.8252 25.1775 51.8067L25.1381 51.0149C25.1374 50.9922 25.1492 50.9804 25.1736 50.9794L25.427 50.9688C25.4414 50.9681 25.4482 50.9612 25.4475 50.948L24.4014 29.5419C24.4011 29.5359 24.3986 29.53 24.3944 29.5253C24.3903 29.5206 24.3846 29.5172 24.3781 29.5156C23.5305 29.2931 22.9479 28.6579 22.8941 27.852C22.8668 27.4397 22.8407 27.0073 22.816 26.5548C22.8149 26.5329 22.8025 26.5226 22.7788 26.5239C21.8908 26.571 21.2782 25.7174 21.72 25.0032C21.9085 24.6976 22.2805 24.4943 22.668 24.4791C22.6709 24.479 22.6738 24.4783 22.6765 24.4772C22.6792 24.476 22.6816 24.4744 22.6835 24.4724C22.6855 24.4704 22.687 24.4681 22.6879 24.4656C22.6889 24.4631 22.6892 24.4604 22.689 24.4578L22.3919 19.506C22.3912 19.4932 22.3857 19.4809 22.3764 19.471L20.6191 17.592ZM5.40321 25.5141C5.40728 25.4253 5.37261 25.3387 5.30683 25.2733C5.24105 25.2079 5.14955 25.169 5.05245 25.1653L1.13332 25.0151C1.03622 25.0114 0.941484 25.0431 0.869949 25.1032C0.798413 25.1634 0.755939 25.2471 0.751869 25.3358L0.751265 25.349C0.747196 25.4378 0.781864 25.5244 0.847645 25.5898C0.913425 25.6552 1.00493 25.6941 1.10202 25.6978L5.02116 25.848C5.11826 25.8517 5.21299 25.82 5.28453 25.7599C5.35607 25.6997 5.39854 25.616 5.40261 25.5273L5.40321 25.5141ZM26.9798 25.34C26.9759 25.2512 26.9336 25.1675 26.8621 25.1072C26.7907 25.047 26.696 25.0151 26.5989 25.0187L22.6784 25.1627C22.5813 25.1662 22.4897 25.2049 22.4238 25.2702C22.3579 25.3356 22.3231 25.4221 22.327 25.5109L22.3275 25.5231C22.3314 25.6119 22.3737 25.6956 22.4452 25.7559C22.5166 25.8161 22.6112 25.848 22.7084 25.8444L26.6289 25.7004C26.726 25.6969 26.8176 25.6582 26.8835 25.5929C26.9494 25.5276 26.9842 25.441 26.9803 25.3522L26.9798 25.34Z" fill="#74B65F"/>
</g>
</svg>
