<svg width="49" height="49" viewBox="0 0 49 49" fill="none" xmlns="http://www.w3.org/2000/svg">
<g id="Group 25">
<g id="Group 22">
<path id="Vector" d="M44.454 5.12463C44.2549 6.26112 43.6029 7.33815 42.6378 7.99805C40.9217 9.1702 38.5378 8.84521 37.0941 7.41742C35.914 6.25022 35.5217 4.6193 36.0042 3.03694C36.6542 0.907642 38.8132 -0.332882 40.9821 0.0783143C43.3146 0.521217 44.8613 2.8041 44.454 5.12463Z" fill="#74B65F"/>
<path id="Vector_2" d="M19.7757 17.4362C21.3121 17.5075 22.4906 18.1119 23.311 19.2494C25.1351 21.774 23.7935 25.3579 20.7556 26.0535C17.8792 26.7124 15.2208 24.3849 15.4229 21.4778C15.5676 19.3901 17.0648 17.8563 19.1138 17.4481C19.1272 17.4453 19.1393 17.4381 19.148 17.4276C19.1566 17.4172 19.1614 17.4041 19.1614 17.3906L19.1594 8.37203C19.1594 8.33504 19.1422 8.30994 19.1079 8.29672C18.4301 8.04703 18.2369 7.23158 18.7323 6.70842C19.1643 6.25065 20.0155 6.27542 20.3414 6.86101C20.6506 7.41587 20.4197 8.06586 19.8222 8.29573C19.7879 8.30828 19.7707 8.33306 19.7707 8.37005L19.7717 17.4322C19.7717 17.4333 19.7721 17.4343 19.7729 17.435C19.7736 17.4358 19.7746 17.4362 19.7757 17.4362Z" fill="#74B65F"/>
<path id="Vector_3" d="M28.5939 10.9036C28.195 13.0834 27.7894 15.2761 27.3772 17.4817C27.3567 17.592 27.2484 17.6779 27.0522 17.7393C26.7768 17.8265 26.643 17.4946 26.6826 17.2756C27.0875 15.0595 27.4862 12.9008 27.8786 10.7995C27.8813 10.7849 27.8799 10.7698 27.8747 10.7558C27.8694 10.7418 27.8605 10.7296 27.8488 10.7203C27.5248 10.4646 27.2395 9.90086 27.4664 9.4857C27.6632 9.12437 27.9664 8.9338 28.376 8.91399C29.6561 8.84958 29.7611 10.4627 28.6613 10.8263C28.6237 10.8388 28.6012 10.8646 28.5939 10.9036Z" fill="#74B65F"/>
<path id="Vector_4" d="M45.1252 12.1756C45.3382 12.9921 45.0588 13.6014 44.3781 14.0721C42.8219 15.1481 41.3805 15.9732 40.0541 16.5472C36.9211 17.9036 33.1143 18.7934 29.9724 17.1655C29.2412 16.787 28.7477 15.815 29.2481 15.0461C29.5493 14.5843 30.0764 14.2385 30.6254 14.2435C30.8466 14.2461 31.093 14.3165 31.3645 14.4545C32.6348 15.1016 34.3459 15.0253 35.7014 14.727C36.9921 14.4436 38.2918 13.9717 39.6003 13.3111C39.6367 13.2933 39.6558 13.2639 39.6578 13.2229C39.7186 11.9573 40.2001 10.987 41.1024 10.3119C42.6561 9.14962 45.146 9.23681 46.5461 10.6626C47.2231 11.3536 47.5973 12.1915 47.6687 13.1764C48.0056 17.867 48.3431 22.5903 48.6813 27.3463C48.7738 28.6429 48.3481 29.7289 47.4041 30.6041C47.381 30.6253 47.3695 30.6517 47.3695 30.6834C47.3675 35.6739 47.3678 40.6561 47.3704 45.6301C47.3704 46.4155 47.0709 47.0153 46.4718 47.4295C45.3858 48.1795 43.9233 47.6762 43.4497 46.4941C43.3513 46.2484 43.3024 45.9227 43.3031 45.5172C43.309 40.9983 43.3113 36.3232 43.31 31.4919C43.3099 31.4782 43.3058 31.4648 43.298 31.4535C43.2902 31.4422 43.2792 31.4335 43.2664 31.4285C42.1636 31.0252 41.2778 30.1295 40.8835 29.0416C40.754 28.6849 40.6605 28.0683 40.603 27.1917C40.3996 24.1029 40.1846 21.0439 39.958 18.0146C39.9554 17.975 39.9722 17.9462 40.0085 17.9284C41.3647 17.2771 42.736 16.4815 44.1225 15.5415C44.4633 15.3103 44.7338 15.054 44.934 14.7726C45.4836 13.9997 45.5618 13.1308 45.1688 12.1657C45.1662 12.1591 45.1615 12.1568 45.1549 12.1588L45.1312 12.1657C45.1259 12.167 45.1239 12.1703 45.1252 12.1756Z" fill="#74B65F"/>
<path id="Vector_5" d="M10.8148 11.966C10.1053 11.6915 9.88635 10.7641 10.4343 10.237C10.9723 9.72077 11.9374 9.8902 12.1187 10.671C12.2356 11.1723 12.0721 11.5545 11.6282 11.8174C11.5754 11.8491 11.5519 11.8953 11.5579 11.9561L12.4576 20.8508C12.458 20.8559 12.4597 20.8608 12.4626 20.865C12.4655 20.8693 12.4694 20.8728 12.474 20.8751C12.4786 20.8775 12.4838 20.8787 12.4891 20.8786C12.4943 20.8785 12.4995 20.8771 12.5041 20.8746C12.8172 20.6962 13.0917 20.4792 13.3672 20.2593C13.4107 20.2236 13.4276 20.2335 13.4177 20.289C13.2829 21.0407 13.236 21.7723 13.277 22.4837C13.3404 23.5984 13.7298 24.5456 14.351 25.5038C14.3788 25.5473 14.3672 25.5655 14.3164 25.5582C14.1704 25.5378 14.0409 25.4833 13.928 25.3948C13.8982 25.3716 13.8649 25.3617 13.8279 25.365C9.96463 25.6999 7.438 29.1897 5.92797 32.3891C5.00055 34.3549 4.24554 36.5129 3.73427 38.6888C3.62131 39.1703 3.47962 39.5379 3.3092 39.7916C2.81477 40.5268 1.8388 40.9271 1.04019 40.4475C0.153395 39.9154 -0.155745 38.7978 0.0721467 37.8119C0.921291 34.1498 2.1955 30.5293 4.1851 27.3873C5.66837 25.045 7.63914 23.0049 10.1509 21.8357C10.6097 21.6227 11.1873 21.4255 11.7065 21.2214C11.7199 21.2162 11.7313 21.2068 11.7388 21.1944C11.7463 21.182 11.7496 21.1675 11.7481 21.153L10.8445 12.0056C10.8435 11.997 10.8403 11.9887 10.8351 11.9817C10.8298 11.9748 10.8228 11.9693 10.8148 11.966Z" fill="#74B65F"/>
<path id="Vector_6" d="M25.9284 19.8546C25.9647 19.8645 25.9964 19.882 26.0235 19.9071C26.8241 20.6433 27.6634 21.1129 28.6502 21.4597C31.6792 22.5269 34.0562 24.9871 35.7436 27.7218C37.5152 30.5932 38.7676 33.9809 39.596 37.3269C39.8833 38.4912 39.5048 40.6254 37.969 40.672C36.8474 40.7057 36.243 39.6851 36.0121 38.727C35.2472 35.5504 34.0988 32.3183 32.2697 29.6916C30.8281 27.6188 28.6591 25.6807 26.0602 25.4647C25.932 25.4541 25.8055 25.4723 25.6807 25.5192C25.4733 25.5978 25.2536 25.6453 25.0218 25.6619C24.9729 25.6652 24.962 25.6467 24.9891 25.6064C26.1583 23.8638 26.4661 21.974 25.9125 19.9368C25.9066 19.915 25.8964 19.8955 25.8818 19.8784L25.859 19.8536C25.8405 19.8325 25.8452 19.8235 25.8729 19.8268C25.8828 19.8282 25.8911 19.8318 25.8977 19.8377C25.9069 19.8457 25.9172 19.8513 25.9284 19.8546Z" fill="#74B65F"/>
<path id="Vector_7" d="M14.7975 34.6642C14.7955 38.831 14.7965 42.9951 14.8004 47.1566C14.8011 47.5305 14.7558 47.8218 14.6647 48.0305C13.9671 49.6248 11.5515 49.1303 11.5515 47.3944C11.5515 43.0863 11.5515 38.8419 11.5515 34.6612C11.5515 34.6156 11.529 34.5928 11.4841 34.5928L7.34738 34.5948C7.34126 34.5948 7.33523 34.5933 7.32984 34.5904C7.32445 34.5875 7.31987 34.5833 7.31652 34.5782C7.31317 34.5731 7.31116 34.5672 7.31067 34.5611C7.31017 34.555 7.31121 34.5489 7.31369 34.5433C7.98548 32.9183 8.84651 31.3132 9.97309 30.0162C10.853 29.0035 11.9577 28.1326 13.2369 27.77C13.4503 27.7098 13.6795 27.688 13.9245 27.7046C14.8817 27.768 15.7777 27.796 16.6127 27.7888C16.7481 27.7875 16.8795 27.8165 17.007 27.876C18.7113 28.6716 20.7662 28.6894 22.4497 27.871C22.5567 27.8188 22.671 27.7931 22.7925 27.7937C23.7173 27.7964 24.756 27.7947 25.9087 27.7888C26.2726 27.7868 26.6052 27.8294 26.9064 27.9166C28.4402 28.3615 29.7036 29.705 30.6161 31.0625C31.3084 32.091 31.9121 33.2545 32.4274 34.5532C32.4291 34.5579 32.4298 34.5629 32.4293 34.5679C32.4287 34.5729 32.427 34.5776 32.4243 34.5817C32.4215 34.5858 32.4179 34.5892 32.4136 34.5914C32.4093 34.5937 32.4045 34.5949 32.3996 34.5948L28.2262 34.5928C28.2038 34.5928 28.1925 34.6041 28.1925 34.6265C28.1873 38.6988 28.1889 42.8085 28.1975 46.9555C28.1988 47.3901 28.1645 47.7128 28.0944 47.9235C27.8527 48.6547 27.0977 49.0967 26.3298 48.9817C25.5054 48.8579 24.9436 48.193 24.9446 47.3686C24.9452 43.1358 24.9449 38.8947 24.9436 34.6453C24.9436 34.6384 24.9422 34.6316 24.9396 34.6252C24.937 34.6189 24.9331 34.6131 24.9282 34.6082C24.9233 34.6033 24.9175 34.5995 24.9112 34.5968C24.9048 34.5942 24.898 34.5928 24.8911 34.5928L14.8678 34.5938C14.8209 34.5938 14.7975 34.6173 14.7975 34.6642Z" fill="#74B65F"/>
</g>
</g>
</svg>
