<svg width="58" height="52" viewBox="0 0 58 52" fill="none" xmlns="http://www.w3.org/2000/svg">
<g id="Group 27">
<g id="Group 26">
<path id="Vector" d="M31.8618 30.4266C32.7852 30.4262 33.7074 30.4266 34.6284 30.4278C34.8079 30.4284 34.9874 30.4044 35.1645 30.4158C35.2902 30.4238 35.4106 30.4276 35.5259 30.4272C37.0496 30.4236 38.5972 30.425 40.1686 30.4314C40.6965 30.4338 41.0729 30.41 41.2979 30.36C42.3833 30.1174 43.2539 29.1839 43.3493 28.072C43.3709 27.8198 43.378 27.482 43.3703 27.0586C43.3699 27.0337 43.38 27.0139 43.4004 26.9991C43.745 26.749 43.9643 26.435 44.0584 26.0571C44.3982 24.6925 43.0401 23.5962 41.786 24.1558C41.3405 24.3539 40.9707 24.7958 40.8746 25.2676C40.7321 25.9725 40.9565 26.5528 41.5476 27.0087C41.5664 27.0231 41.5752 27.0421 41.574 27.0658C41.5452 27.6439 41.7109 28.2809 41.0349 28.5607C40.9228 28.6071 40.7365 28.6295 40.476 28.6279C39.4625 28.6215 38.4175 28.6211 37.3408 28.6267C37.3382 28.6268 37.3356 28.6262 37.3333 28.625C37.3309 28.6238 37.3289 28.6221 37.3274 28.62C37.3258 28.6179 37.3248 28.6154 37.3245 28.6128C37.3241 28.6102 37.3243 28.6076 37.3252 28.6051C37.4975 28.1278 37.4723 27.5653 37.4579 27.0598C37.4571 27.0345 37.4669 27.0147 37.4873 27.0003C37.888 26.7073 38.1199 26.3315 38.1831 25.8728C38.4017 24.2854 36.4559 23.3633 35.3596 24.5274C34.659 25.2712 34.8199 26.4132 35.6334 26.9997C35.653 27.0137 35.6624 27.0327 35.6616 27.0568C35.6502 27.381 35.7072 27.794 35.5979 28.0804C35.4407 28.4934 35.087 28.6309 34.6584 28.6285C33.6966 28.6225 32.7714 28.6219 31.8829 28.6267C31.8769 28.6269 31.8713 28.6293 31.8671 28.6336C31.863 28.6379 31.8606 28.6436 31.8606 28.6495L31.8618 30.4266C31.3027 30.4258 30.7426 30.4254 30.1814 30.4254C29.7511 30.4254 29.465 30.4462 29.3229 30.4879C28.7892 30.6446 28.3593 31.0684 28.2032 31.6064C28.1612 31.7524 28.1397 31.9496 28.1389 32.1977C28.1365 33.2368 28.1385 34.2884 28.145 35.3527C28.1482 35.8842 28.1295 36.2832 28.0891 36.5498C27.935 37.5588 27.524 38.4128 26.856 39.1116C26.0595 39.9453 25.0847 40.428 23.9316 40.5597C23.9243 40.5605 23.9207 40.5645 23.9207 40.5717C23.9143 43.7797 23.9147 46.9941 23.9219 50.2148C23.9223 50.5502 23.9007 50.7752 23.8571 50.8897C23.4915 51.8406 22.1166 51.5651 22.1172 50.5462C22.1188 47.1477 22.119 43.8365 22.1178 40.6125C22.1178 40.5953 22.1092 40.5865 22.092 40.5861C20.3441 40.5785 18.5684 40.5795 16.7649 40.5891C16.2738 40.5915 15.9036 40.5785 15.6542 40.5501C14.281 40.394 13.1803 39.7526 12.3522 38.6259C11.7586 37.8182 11.4631 36.8714 11.4655 35.7855C11.4683 34.7025 11.4685 33.6228 11.4661 32.5465C11.4661 32.5253 11.4555 32.5147 11.4342 32.5147H4.17396C4.16635 32.5147 4.16255 32.5185 4.16255 32.5261C4.16335 38.4534 4.16415 44.3494 4.16495 50.2142C4.16495 50.5392 4.14934 50.7548 4.11812 50.8608C4.03567 51.1422 3.82794 51.3361 3.49494 51.4426C2.92759 51.6233 2.36204 51.1478 2.36204 50.5468C2.36284 44.4707 2.36364 38.4726 2.36444 32.5525C2.36444 32.5237 2.35023 32.5099 2.32181 32.5111C2.20134 32.5167 2.07806 32.5171 1.95199 32.5123C1.39364 32.4913 0.910343 32.1365 0.771057 31.5931C0.740238 31.4739 0.725429 31.3002 0.72663 31.072C0.733034 29.8301 0.734435 28.5953 0.730833 27.3677C0.729632 26.8466 1.09946 26.3699 1.60017 26.215C1.72545 26.1766 1.89695 26.1574 2.11469 26.1574C9.39358 26.161 16.6547 26.1618 23.8979 26.1598C23.9006 26.1598 23.9033 26.1603 23.9057 26.1614C23.9082 26.1624 23.9105 26.1639 23.9124 26.1658C23.9143 26.1677 23.9158 26.1699 23.9168 26.1724C23.9178 26.1749 23.9183 26.1775 23.9183 26.1802C23.9147 29.4054 23.9153 32.6748 23.9201 35.9885C23.9205 36.1978 23.8985 36.3603 23.8541 36.476C23.6272 37.0625 22.8731 37.2468 22.4066 36.8104C22.2137 36.6299 22.1172 36.3997 22.1172 36.1199C22.1188 34.8716 22.119 33.6772 22.1178 32.5369C22.1178 32.5302 22.1152 32.5238 22.1104 32.5191C22.1057 32.5144 22.0993 32.5117 22.0926 32.5117H15.0803C15.0724 32.5117 15.0649 32.5086 15.0593 32.5031C15.0537 32.4976 15.0504 32.4902 15.0503 32.4823C15.0455 31.6222 15.0465 30.7656 15.0533 29.9127C15.0569 29.4882 14.9614 29.1478 14.5838 28.9335C14.005 28.6051 13.2528 29.02 13.2558 29.6918C13.265 31.8011 13.269 33.8539 13.2678 35.8504C13.2672 37.2264 14.2104 38.456 15.5672 38.7231C15.8009 38.7692 16.1413 38.7914 16.5884 38.7898C18.8834 38.7818 21.1464 38.7806 23.3774 38.7862C24.2071 38.7886 24.9058 38.5106 25.4733 37.9523C25.8876 37.544 26.1531 37.0659 26.27 36.518C26.3212 36.279 26.3464 35.9234 26.3456 35.4511C26.34 31.7472 26.3376 27.9681 26.3384 24.1137C26.3384 23.0351 26.7053 22.1263 27.4389 21.3875C28.1209 20.7006 28.9238 20.3318 29.8476 20.281C30.0773 20.2682 30.4156 20.2612 30.8622 20.26C31.1956 20.2592 31.5286 20.2594 31.8612 20.2606L31.8606 22.0329C31.8606 22.0402 31.8636 22.0472 31.8687 22.0524C31.8739 22.0576 31.8809 22.0605 31.8883 22.0605C32.7856 22.0617 33.7192 22.0617 34.689 22.0605C34.767 22.0605 34.8451 22.0583 34.9231 22.0539C35.1177 22.0419 35.3092 22.0611 35.5025 22.0617C37.2023 22.0621 38.941 22.0613 40.7185 22.0593C41.2136 22.0585 41.6585 21.9406 42.0531 21.7056C42.7884 21.267 43.2213 20.6102 43.3517 19.7352C43.3769 19.5651 43.3822 19.2201 43.3673 18.7002C43.3665 18.6734 43.377 18.6522 43.3986 18.6366C44.6167 17.7606 44.1869 15.867 42.6973 15.6587C41.5518 15.4984 40.6267 16.5293 40.8722 17.6429C40.9619 18.0496 41.185 18.3792 41.5416 18.6318C41.5512 18.6386 41.5589 18.6476 41.5641 18.6581C41.5692 18.6686 41.5716 18.6802 41.571 18.6918C41.5596 18.983 41.6023 19.309 41.5458 19.5869C41.485 19.8863 41.3061 20.0929 41.0091 20.2065C40.9074 20.2457 40.7199 20.2646 40.4465 20.263C39.3631 20.2562 38.3302 20.2554 37.348 20.2606C37.3448 20.2605 37.3416 20.2597 37.3387 20.2582C37.3358 20.2567 37.3333 20.2546 37.3314 20.252C37.3295 20.2494 37.3282 20.2463 37.3276 20.2431C37.3271 20.2399 37.3273 20.2367 37.3282 20.2335C37.4951 19.7262 37.4633 19.2219 37.4597 18.696C37.4593 18.67 37.4695 18.6494 37.4903 18.6342C38.0475 18.2277 38.299 17.6033 38.1627 16.9369C38.0691 16.477 37.7545 16.0544 37.339 15.8394C36.8455 15.5837 36.3454 15.5735 35.8387 15.8088C35.4076 16.0093 35.0492 16.4566 34.9592 16.9255C34.8247 17.6219 35.0502 18.1947 35.6358 18.6438C35.6538 18.6574 35.6624 18.6754 35.6616 18.6978C35.6508 19.0214 35.7072 19.429 35.5974 19.7184C35.5085 19.9522 35.3464 20.1133 35.111 20.2017C35.0046 20.2421 34.7959 20.2616 34.4849 20.26C33.6107 20.256 32.7362 20.2562 31.8612 20.2606C31.8612 18.6412 31.8612 17.0172 31.8612 15.3885C31.8612 14.851 31.8843 14.4582 31.9303 14.21C32.088 13.3603 32.473 12.6228 33.0854 11.9977C33.2643 11.8151 33.5331 11.602 33.8917 11.3583C34.9568 10.635 36.0526 9.88815 37.1793 9.11768C37.1973 9.10527 37.1975 9.09286 37.1799 9.08046C35.2707 7.6954 34.5563 5.33955 35.4064 3.13319C35.9017 1.84839 36.9932 0.809152 38.2474 0.333058C40.4099 -0.488249 42.7982 0.245403 44.1274 2.13717C44.9643 3.32831 45.2495 4.87666 44.8485 6.30314C44.499 7.54671 43.763 8.52771 42.6403 9.24616C42.6187 9.26017 42.6191 9.27378 42.6415 9.28698C44.0224 10.0759 45.3964 10.8646 46.7636 11.653C47.8521 12.281 48.599 13.4139 48.7947 14.6297C48.8367 14.8918 48.8575 15.2739 48.8571 15.7758C48.8511 20.4879 48.8501 25.146 48.8541 29.75C48.8542 29.7548 48.8558 29.7595 48.8588 29.7631C48.8618 29.7667 48.8659 29.7691 48.8703 29.7698C50.5982 30.0216 52.3737 30.2729 54.1968 30.5239C54.6935 30.5923 55.0726 30.6698 55.3339 30.7562C56.6626 31.1963 57.6724 32.3574 57.9287 33.7347C57.9768 33.9952 58.0006 34.3589 58.0002 34.8255C57.9958 39.5749 57.9946 44.2315 57.9966 48.7956C57.9972 49.5718 57.6267 50.3217 57.0018 50.7888C55.5339 51.8851 53.465 51.1166 53.0513 49.3443C53.0053 49.147 52.9825 48.8512 52.9829 48.457C52.9877 44.7715 52.9885 41.0454 52.9853 37.2787C52.9853 37.2614 52.9767 37.2518 52.9595 37.2498L52.2516 37.173C52.2496 37.1727 52.2475 37.1729 52.2456 37.1736C52.2436 37.1742 52.2418 37.1753 52.2403 37.1767C52.2387 37.1781 52.2375 37.1799 52.2367 37.1818C52.2358 37.1838 52.2354 37.1859 52.2354 37.188C52.2346 40.9924 52.2346 44.8447 52.2354 48.7451C52.236 50.2389 51.0191 51.4054 49.5265 51.2871C48.4375 51.2012 47.5615 50.431 47.2944 49.3725C47.2431 49.1708 47.2183 48.804 47.2199 48.272C47.2275 45.7129 47.2283 43.1225 47.2223 40.5008C47.2223 40.474 47.2339 40.454 47.2571 40.4408C48.0172 40.0061 48.5557 39.2335 48.7509 38.411C48.8193 38.1216 48.8499 37.7421 48.8427 37.2727C48.8315 36.5246 48.8319 35.7691 48.8439 35.0063C48.8475 34.7533 48.8189 34.559 48.7581 34.4233C48.4333 33.698 47.4114 33.6998 47.0986 34.4551C47.0574 34.5548 47.0368 34.65 47.0368 34.7409C47.034 35.6787 47.0356 36.5752 47.0416 37.4305C47.0436 37.7079 47.0186 37.9327 46.9666 38.1048C46.7979 38.6637 46.2593 39.069 45.6698 39.0804C45.1082 39.0912 44.5269 39.0984 43.9257 39.102C43.9017 39.102 43.8905 39.114 43.8921 39.138C44.1314 42.8403 44.3734 46.5468 44.6179 50.2575C44.6371 50.5504 44.6251 50.7562 44.5819 50.8746C44.2421 51.804 42.8985 51.5999 42.8348 50.6171C42.5811 46.7143 42.3321 42.8873 42.088 39.1362C42.0864 39.1142 42.0745 39.1032 42.0525 39.1032H35.4022C35.3766 39.1032 35.363 39.1158 35.3614 39.141C35.1016 43.0834 34.8573 46.8564 34.6284 50.4598C34.6127 50.7027 34.5727 50.8823 34.5083 50.9983C34.1264 51.6881 33.1394 51.6119 32.8687 50.8788C32.8242 50.7588 32.808 50.6079 32.82 50.4262C33.0742 46.5846 33.3195 42.8171 33.5561 39.1236C33.5569 39.1112 33.5511 39.105 33.5387 39.105C32.8975 39.1002 32.2579 39.101 31.6199 39.1074C31.3773 39.1098 31.187 39.0818 31.0489 39.0233C30.5704 38.821 30.3747 38.4146 30.3765 37.9024C30.3805 36.9631 30.3811 36.0723 30.3783 35.2302C30.3765 34.6893 30.7223 34.2522 31.2483 34.1417C31.3111 34.1285 31.501 34.1219 31.818 34.1219C32.2123 34.1219 32.5969 34.1229 32.9719 34.1249C32.9879 34.1249 32.9915 34.1183 32.9827 34.1051C32.2363 33.004 31.8626 31.7779 31.8618 30.4266ZM28.1792 29.0212C28.6307 28.7606 29.2142 28.6297 29.7155 28.6273C30.4148 28.6237 31.1234 28.6239 31.8414 28.6279C31.844 28.6279 31.8466 28.6274 31.849 28.6264C31.8514 28.6253 31.8536 28.6238 31.8554 28.6219C31.8573 28.62 31.8587 28.6178 31.8597 28.6153C31.8607 28.6128 31.8612 28.6102 31.8612 28.6075V22.0845C31.8612 22.0811 31.8606 22.0777 31.8593 22.0746C31.858 22.0715 31.8561 22.0686 31.8537 22.0662C31.8513 22.0638 31.8484 22.0619 31.8453 22.0606C31.8422 22.0593 31.8388 22.0587 31.8354 22.0587C31.3091 22.0603 30.767 22.0599 30.209 22.0575C29.0119 22.0521 28.1377 22.913 28.1395 24.1125C28.1416 25.6647 28.1416 27.2931 28.1395 28.9977C28.1391 29.0286 28.1524 29.0364 28.1792 29.0212ZM5.59323 29.331C5.59323 29.0391 5.47729 28.7592 5.27091 28.5528C5.06453 28.3464 4.78462 28.2305 4.49275 28.2305C4.20089 28.2305 3.92098 28.3464 3.7146 28.5528C3.50822 28.7592 3.39228 29.0391 3.39228 29.331C3.39228 29.6228 3.50822 29.9027 3.7146 30.1091C3.92098 30.3155 4.20089 30.4314 4.49275 30.4314C4.78462 30.4314 5.06453 30.3155 5.27091 30.1091C5.47729 29.9027 5.59323 29.6228 5.59323 29.331ZM9.70457 29.331C9.70457 29.0391 9.58863 28.7592 9.38225 28.5528C9.17587 28.3464 8.89596 28.2305 8.60409 28.2305C8.31223 28.2305 8.03232 28.3464 7.82594 28.5528C7.61956 28.7592 7.50361 29.0391 7.50361 29.331C7.50361 29.6228 7.61956 29.9027 7.82594 30.1091C8.03232 30.3155 8.31223 30.4314 8.60409 30.4314C8.89596 30.4314 9.17587 30.3155 9.38225 30.1091C9.58863 29.9027 9.70457 29.6228 9.70457 29.331Z" fill="#74B65F"/>
<path id="Vector_2" d="M2.55578 4.32617H23.1035C23.7813 4.32617 24.4314 4.59544 24.9107 5.07474C25.39 5.55404 25.6592 6.20411 25.6592 6.88195V21.8378C25.6592 22.5156 25.39 23.1657 24.9107 23.645C24.4314 24.1243 23.7813 24.3936 23.1035 24.3936H2.55578C1.87794 24.3936 1.22787 24.1243 0.74857 23.645C0.269268 23.1657 0 22.5156 0 21.8378V6.88195C0 6.20411 0.269268 5.55404 0.74857 5.07474C1.22787 4.59544 1.87794 4.32617 2.55578 4.32617ZM22.9185 8.14573C22.9185 7.79304 22.7784 7.45479 22.529 7.2054C22.2797 6.95601 21.9414 6.81591 21.5887 6.81591H4.06991C3.71722 6.81591 3.37898 6.95601 3.12959 7.2054C2.8802 7.45479 2.74009 7.79304 2.74009 8.14573V20.5734C2.74009 20.9261 2.8802 21.2643 3.12959 21.5137C3.37898 21.7631 3.71722 21.9032 4.06991 21.9032H21.5887C21.9414 21.9032 22.2797 21.7631 22.529 21.5137C22.7784 21.2643 22.9185 20.9261 22.9185 20.5734V8.14573Z" fill="#74B65F"/>
</g>
</g>
</svg>
