<svg width="41" height="40" viewBox="0 0 41 40" fill="none" xmlns="http://www.w3.org/2000/svg">
<circle cx="20.5426" cy="19.7602" r="19.6549" fill="#EB5649"/>
<path d="M12.7998 16.6898C12.7998 22.4693 17.8558 27.2487 20.0938 29.0811C20.4141 29.3434 20.5761 29.476 20.8151 29.5433C21.0011 29.5957 21.275 29.5957 21.461 29.5433C21.7004 29.4759 21.8614 29.3445 22.1829 29.0813C24.4208 27.2489 29.4766 22.4698 29.4766 16.6903C29.4766 14.5031 28.5981 12.4052 27.0344 10.8587C25.4706 9.31209 23.3498 8.44324 21.1383 8.44324C18.9268 8.44324 16.8058 9.31222 15.2421 10.8588C13.6783 12.4054 12.7998 14.5026 12.7998 16.6898Z" stroke="white" stroke-width="2" stroke-linecap="round" stroke-linejoin="round"/>
<path d="M18.7558 15.5905C18.7558 16.9062 19.8225 17.9729 21.1382 17.9729C22.454 17.9729 23.5206 16.9062 23.5206 15.5905C23.5206 14.2747 22.454 13.2081 21.1382 13.2081C19.8225 13.2081 18.7558 14.2747 18.7558 15.5905Z" stroke="white" stroke-width="2" stroke-linecap="round" stroke-linejoin="round"/>
</svg>
